<mxfile host="www.draw.io" modified="2020-06-14T13:35:26.026Z" agent="5.0 (Macintosh; Intel Mac OS X 10_15_5) AppleWebKit/537.36 (KHTML, like Gecko) Code/1.45.1 Chrome/78.0.3904.130 Electron/7.2.4 Safari/537.36" etag="qYkQPOgb6BqipMLpTBRC" version="13.2.4">
    <diagram id="6hGFLwfOUW9BJ-s0fimq" name="Page-1">
        <mxGraphModel dx="1094" dy="540" grid="1" gridSize="10" guides="1" tooltips="1" connect="1" arrows="1" fold="1" page="1" pageScale="1" pageWidth="827" pageHeight="1169" math="0" shadow="0">
            <root>
                <mxCell id="0"/>
                <mxCell id="1" parent="0"/>
                <mxCell id="3" value="&lt;font color=&quot;#67ab9f&quot;&gt;VPC&lt;/font&gt;" style="points=[[0,0],[0.25,0],[0.5,0],[0.75,0],[1,0],[1,0.25],[1,0.5],[1,0.75],[1,1],[0.75,1],[0.5,1],[0.25,1],[0,1],[0,0.75],[0,0.5],[0,0.25]];outlineConnect=0;gradientColor=none;html=1;whiteSpace=wrap;fontSize=12;fontStyle=0;shape=mxgraph.aws4.group;grIcon=mxgraph.aws4.group_vpc;strokeColor=#248814;fillColor=#ffffff;verticalAlign=top;align=left;spacingLeft=30;fontColor=#AAB7B8;dashed=0;" parent="1" vertex="1">
                    <mxGeometry x="110" y="100" width="590" height="440" as="geometry"/>
                </mxCell>
                <mxCell id="4" value="Public subnet" style="points=[[0,0],[0.25,0],[0.5,0],[0.75,0],[1,0],[1,0.25],[1,0.5],[1,0.75],[1,1],[0.75,1],[0.5,1],[0.25,1],[0,1],[0,0.75],[0,0.5],[0,0.25]];outlineConnect=0;gradientColor=none;html=1;whiteSpace=wrap;fontSize=12;fontStyle=0;shape=mxgraph.aws4.group;grIcon=mxgraph.aws4.group_security_group;grStroke=0;strokeColor=#248814;fillColor=#E9F3E6;verticalAlign=top;align=left;spacingLeft=30;fontColor=#248814;dashed=0;" parent="1" vertex="1">
                    <mxGeometry x="150" y="142.5" width="460" height="347.5" as="geometry"/>
                </mxCell>
                <mxCell id="9" value="EC2 instance" style="points=[[0,0],[0.25,0],[0.5,0],[0.75,0],[1,0],[1,0.25],[1,0.5],[1,0.75],[1,1],[0.75,1],[0.5,1],[0.25,1],[0,1],[0,0.75],[0,0.5],[0,0.25]];outlineConnect=0;gradientColor=none;html=1;whiteSpace=wrap;fontSize=12;fontStyle=0;shape=mxgraph.aws4.group;grIcon=mxgraph.aws4.group_ec2_instance_contents;strokeColor=#D86613;fillColor=none;verticalAlign=top;align=left;spacingLeft=30;fontColor=#D86613;dashed=0;" parent="1" vertex="1">
                    <mxGeometry x="210" y="190" width="340" height="90" as="geometry"/>
                </mxCell>
                <mxCell id="11" value="" style="shape=image;verticalLabelPosition=bottom;labelBackgroundColor=#ffffff;verticalAlign=top;aspect=fixed;imageAspect=0;image=data:image/png,iVBORw0KGgoAAAANSUhEUgAAAgkAAACxCAMAAAB5ut77AAAABGdBTUEAALGPC/xhBQAAAAFzUkdCAK7OHOkAAAL3UExURUdwTAAAAAAAAAAAANIhKMcdOQAAAAAAAIIcJgAAAAAAAAAAACgWLwAAANEgLgAAANEiKNIhKA4KENEkK9IhJ9IgKNIqKAAAAAAAAMsfNNIhKNQiLNIhKNIhKMYyO9IhKAAAANMhKAAAANEiKtMhKAAAAAAAAAYGEM8gLNEiKtIhKAAAAAAAAAAAAAAAAAAAAAAAAE1NTdIhKdIhKAAAAEhHTV0/YNIiKQAAAAkJCdIiKHgpgAAAAE1NTQAAAAAAANAiLNM1MgAAAAAAAE1NTc8nLgAAAAAAAAAAANEhKtAlLAAAAAAAAAAAAIIneQAAANIiKgAAAAAAAIUmdwAAAMohN9EhKdIhKIImeQAAAAAAAAAAANIhKdIiKtIgKMshNk1NTZElbIQmdwAAAM0hMHspfismZOx6JuZtJ4AnesohN9EvM4wjcoIneex+JeZjJsMgPdIhKIUmd4ErdG0rhXkpf+l2JtIhKNtUMKYgXHsoffaXI+l2J+t8Jk1NTa8fUk1NTZUia40kcdY6MW0siNpJLvaYI8UhPK8fU2sshrcgSrogRt5WLK0fVEdEVPGNI70gRPaWI9IiKvWUI+ZuKLIgTrwgRKsgVkhHUKggWW8rhqMfX/WVI/WVI/KMJOh0JrAfUd9WK7wgRehyJ+RnKb4gQ91TLc0kNU1NTa0gVVQrgagfWqIgXy8nZ+FgKswhNdhDL84tOSsmZC8nZ99ZKzYnbSomY754fL5/fCglYUwqeygnYsNwbgAAANIhKE1NTcogNswhNs0iNfaZI+l4JveaI7wgRb4gQ8AgQbogR8YgOsQgPIInebggScggOLYgS7QgTbIgT64gU7AgUYcmdX8oe99XK+BbK6wgVeRmKYUmd8IgPtpILuFfKqkgWfSRJOJjKnwofdlEL8EgP91SLeh1JttMLuZvJ+VqKKogV9xPLddBL+dyJ/KOJPWVI9U6MacgW4olc9Y+MN5ULOZsKM8mNKUgXY0kcctDSmotisB0dLKnqMRhYzWlyX0AAAC9dFJOUwBJMcxbCr3eAqqI9wXCGTRO1Qo37WcVD/wQ3h758wbN4NrwVbjrIBokRONcKU7YsWiodqRWMBKO0RSG/m7kmkOa/uN7eiuQyuaySXQ8tm2Ab5Wgz4vJYv1CpWKEezDG9Lcv6Mc9WfxDIISv0BmZww3m6ashTejXvsbxve8tbPialMPy0PTu4oRDocjzedhh0Han5r+VcKyAS7Ww/tRTg+zqXV+w3pKU1s1V923O2/Pfsvx3oN8+vf7EjJGsfyRyt/0AAB1iSURBVHja7J1bTFPZGsf3KNVtxE7LpSOl0IPFofR4pWqHxktR69jOMcMYoTmRi8khgUACIScBEuSEhMC8EA3Cgw+oIRqdp1ETk5mH021L5cVJfNSQI3EygdF4GZNREqLzcNba17Vv3RvrbtO6/onadq+1S/f69Vv/71trI0F8PF2aHHwyOdRDYH3a6pmYS/zxx5Mn0+34WnzSOjs2N5egUXh1SU/7RqezRvZivxNVi7feLGtSDtrYVM5ZWh+qKKMiRc6Ay4S87LJaQwqtg1arlT1TtVVJITyqH6D2wTkghgQ9KJAVFFVkkr5aREkUCZRImuSBV2sUT1lYGRE6FvmFjsUUVaHUHjRjSbNQSqrAw/oBFoEGgSEBoHBWs0MYXuo8TRIoyhMUN2kBr9lJ+QlLvGyHMvbf3jAmIQMgJOYYEhIMCedJrR4heKlbFEiod/NqboTDXiRCoZkeI4s81NthBAk1usE7m8O+XtiqfjUklJXKZMYDu+qpgQWBMwqvXg1p9HBHKDsY5kI5CeI4keegKCs6iQQoCnz5K6Xna4bRpNLNPzfVw9BQvBoS8DB+DI+Q4FFgSTiv0cUHJnsw43u1SCDCYO73I3NAGXAXwGK4JVYRxABHsSgQuUErRyEmIa1ZAwBBRAJEIblTKO+lHDZTEfhLiwTITJFg/uopykfUwL9E9rMfjLpL0tHsoSgniUlInzrGEggJXFC4nDyFpMOBT5YFKJAAogDViGYcbsLmkKQdNcJMgI50hGLyTUxCegpK04kEj0KCnx4mknZy0hbBLcsCFEiA3tKLZBzQIngROFhYKhU8qo+dLzAJ6RA5mRBIGBSmh+lkncAYOOlCEkWFNUmoYRuzVMC0oQ15iWnhKE3ydpiEdOhyQiBhLCHkka+SdeK+0y5pFqBEAjCWvZwxjFAe+mtuRdOO8gty64lJSLeGEgIJY2OoUbCpd+LneWAcxVmAEglgHO3sQz9FNXHGURh7ECFk6SgmId35YzdPQmJwWpRHdqj3Ery/X5IFKJHg5ytQMOMwc87AYUYaXCAwCZlNG67cm+ZJmBDnkeokkHY+Ergj4ixAiYQWnhakABHgogPTwItJyKjK++7d44PCxKC44KxOggVxB5XiLECBhKBQXAZD3iaMoofLFi4IdWVMQmY0dQ/oPAPC5HRCXFFQ37BSiawbWMRZgAIJIT7VbEbbOvmTkA6FQCIlwaGw6GwXkRCplMiCB1i3W4QgsEFhbEJScB5U7eaOCF9ngvSI3J6chCahaORFy0fFfGApoaS5qAIJakqyFlmPR1inzi7RJDBB4bK04Ky+8OBDpnja7nnVSSgJUHzRCLjEMiHQmMo4s1GOScisevqWlmgW+iAIY9KCs2qNEa42IMu9pRF08QGQEPLz8oVA4KesZmnGwXlGH9+pUYsEu3zNudQi9gk2iUx4jHWJvPry5RLDwmRickIoOM8lBs93d3erLks3Spx+CF18UNipUslyApcc0J0KzfyeJ6soyGDHmG6T8PTpS5aFvrFLjGscOz/Z3d13hZ4zVLe1AqvXVI3Ijy4+yEhw5nHHwmA40X7Vds42AP8QwiRkzCS8ffqUZgHC0H61myeAk1qJsVBptrYgJHhreBVb3KKMQyYnF2XKyjEJmaokPHvLszA1dU+mPrWeXiUSKpNVlviMQ0F0ecGsuJ0Nk5CeSsIzIJaFvvalJRkJatsTbMAD+l0igemBX3xQJwFkHBXifi5+4alfYUckJiEtap+fn2dYADC0d7POEZXalqUm+d52uAzl0yLBVCRP68C5mCykGgxptWLowiQYq44ff52fZ2B4+3ZqiHULeiYHuOTgU/i6c3SokgC8gEN654PZwSUNwIXaS+Sdgr01JkyCkQnkwK9ALAvXOq7wzlF7crBQss2ojAVo1CDBqbTKBBLQC/TXvtChdLi8hXUgmASDNL6wsMCz0H6VtgsvX/LlBSi15adKhQ3q9KvO5CQUKm5BgLOCi6tUUj7J/jXSyxUfMQlGzQ0LCzwLU+2sWxCxcJVQTwBcypGiLSkJXvFCFScrRfUzow5vkQmIDIgJ3lsTwD7ByLnhERDLwjXbtflnchbUyko+LpzL3YM3GQkw4yhWeL2e4uqONiu8e02wjaQFrjT2l2MSDJwbHj58xLMwM847R668AFDoU7kXDiYAfqUDNVwWoEICOF6mtMrdU8Yb0JIWutRUD11IeXMNBIPymlaTO5TIReLhTlJcfPPwIc/CAJJFCKWmpSH1vD5SqlZlaFInQTHjoBWAI8j6Qx9Teyrz9DqYB/w9UR96h6zGEuenPje8oVFgWDg7hWQRPAtX1Eq/TtUFAi+7BUmZBAslXnwS1Ize8tKMFqTL/ObVVZYwCaucGxYXF3kWrp9FswieBbWQELTb7dXKhwrBIegZnXa7ReGbb7erLTGFRIeCTS3wxtiI1Sv6TRp5Hk+/EkYej4f7TRoeRbXhAVdT8PnzRZ6FOz0DjxbkLFzJ6C9aIkvctnI8UMbPDb8/51h483BmhnOOPAyQhSF8nXJfM78DPWdgeDNguiNkEUJguIa/kbkv8+jjxwILwXEkixBYmMHXKfd16zEUy8J12yiSRfAsXMM5eO4r/BsQB8Oo7TrjFjgYWBbwL2PMffWMvvhNYGG8Y/H5opgFCMNVfJ1yXzUvgDgWRk3XOeeIsvBjB75OOS/37ZE/X3AwPJ4JClmEUGp6NI6vU+4rtNz1JxDDwgh5i3YLEhbu4Awy92VZXl4eec2xUF3IOUcRC4X4OuW8ym/OLi93vX7NsHCLGBCyCKHseB1fp9xX0ywQjQJkoTn8As0oWRYG8J2Eua/SVkjCbMNrWrfIEc45IiyMauQNtn67XBX8voPtO9arascunT/nFyfUT7L+RAEeyJTVOcuoqw6SELRwzhFhYVTLJLiU9wBwJnNdNIm26qxc7kp2kuihT3LsCnaLdI4g/k0/GOYa5DMHdJ2smgVhtqEOKECOCFkEC4M2CPR/zKAgkx4Sop/r+9Q7k57ks0+ShH13RQIjvpd5tI9tcJF5qudcZANHAggKdXWlFs45CiwMdBDmsIEkfKsP/42YBP0knGMbDOsnoTEejwtBwUeOMHZBYGF0nAz66vIMJOFfuj709igmQT8J7HxAHtBNgulmnBYbFMwuEBdQFt79/N+fu/5aqTMbSMLmWj0f+iAmQU1wuI+yjyEJ/7l79wCJPtNDQlOcEwwKfhLOEAwLdaMjQAM/rbz/6/1Kl5E+IbpHzyx2GJOgl4Qz4M9e+tnRu3d/OKCLBFtrXNBsawkICfYuoBsXbi/PLgOtvFv56f27lXpDSTip49N+Hs0ICflfi97lVFaQMHyAe/4DeKAvJgTiqL4nb8yiAiTcXrm9AmQzlITjOvLIbzNDwh7xu6zPDhJ2g1AAn9TC4KCLBHcMBQGEhPjsrJQFKK+hWWQ0ukb7067NDAk7s5GE3efYPBL8eyBfl2PslIYEIZEQsVBoMAlHNH/SqmhGSKjdnJUk1LJ5JDAMwwV6SGiOxZCg0GqzIHkEykIlYTAJm1IsMBpGwjfRbCThDPQHII/MBxPDxX16SAjFYggLfqIBTSQQhY0mYfMXqRUYDSPhqywlYZjOIy+CFDJfDwltMU5MSGhDpwoEhBuk0SREt6dWYDSKhDXRLCXhIp1HDsOHekhoiMUQFnxESOQaBBbyCMNJOJhagdEoEo5lKwlwXjgKC4zn9JBQHUPVWtocl4otQpPGk3A4tQKjQSTkH89WEqBXPAMf1uohoUFEQkCSSPAstJYSxpMQ3ZZSgdEgEuSRKGtIOAoswjBdVdAmISwCIeZ2ixIJQS4iHSR8k1KB0SASNmQvCeyCw1E9JDQ8QEHoJAKiRIJXDZEWEk6kVGA0hoTajdlLAsEsQu7VQUL1AyCBhEJzK5JHCKon0kPCxoJUCozGkLA/msUk0BsT4IqkJgmdDx4gLDQQ34sSCa7Y5CKC7rSQkHQkq6Ifi4T81Vzgrz8WCfkfbczzdZNAb1YaJrRJCN6/fx9hIWxqFbkGBoROsznQQKaHhGOpFBi1SCDX7Dq186utW2Dw2fK3TSdPb6/S/kzboimSQG7bdWrD2uPwXTdvObzpn6f3VH0wAgWHjpzYcRxMVxuPr91weo02CQVw4emiDhIC92mxLNwgi2MSxeMNrurOWLwtPbNDdEcqBcakJFTtX7dFIW89+Fnyr2r+SaVJbINEx9RmtapdJ5Te9eR2lQ5HJCfejx78x0HxubZKkIP6QMTM//vlF4SFPPKmlIRYQyfcuxBIk0+IRr9MocCoTkL+3zdtVuuy5bskueuhHVFdUtxlQ+5Zp/6uB9foCkDCz7ZNfvn+z979vbS15AEAH+3VHE2qlyzbRC6Ekktil/wwLEEiDWZRbg2rxrWxl6gPJfH6kGJA9PqgL6IvdRXBFytuX4rQh9LC/gUH9r5Ye2t/WQXxglD65Ju+6Ouec/LjTHJm5vyccyy783BbStO5Zj6Zme93vmdi3B7j8Vu+lS1Me75//x9E++23f7eZJiGuI8GIk+CM3ya/qnEA84m+zypsAUSvEZvMgVtCPq/NRsqWRxCoDIPQMP3HW8jCBhdSvkdZeKj0YUgDJHToSDBiJIRs8q9rQsxFTMTLapegZDbpCMpKKL0fXcj3zjAJG1//4FrZwsNbf6oKJMT2HTBPgt2hPcGIlNDVoWgo7WOSPFYfy2qW0NWkrNeInASvsPK3o1kZBYGZ/voVsvAcPKkKJCrtH8BECdinmFpZTRJae5QO5mjVJs417Ga1S6i3KX1hh4ssQXggyBVjqUr4+97eHmThTsvb33+XWnj/MzBVwoj2BCNCwphd+WhOQGX20STLapcQVdFrrJ0soZfbI+DeOKMkPNnbgyw84vePVUGl0Kb/AsyVEFOaYLQrkBBRNZzioKh7Xa2EgKrpJOwnSrgJQDNLV8Kt3dd7kIVfPNNwIFG08P5vt1r+ylCUgNiTtStMMA7KS1A7oDEnriJBjYQxt7rXhl0kCXZnwk1ZwsZrrlUsPGB2qgIJwcKj7/786OEjmnNCWLqgjilMMPbLSgi51Q7oIKNfQkJ1r40OggQ2it/pGLVf3H39WsSwAx6U945igmGanxh+pCnBNywN6JQlGJN1chKCXlZ1G9ctwe9T3+s9kgTCT2GMhJVdrlUsTHt+qQokxHnhYQNNCXZpvsjrUJRg7A7JSHCG1Q8J627VKcER09LrAEECS1vCk91dyMJjfv+ItPCI7o7RJd34DShKMIYCMhJGWC0t7NAnYUhTrzandRLa1t68gSy0tLzeqw4qSxjef09XgrMRN0OTE4x2Z4Qsod6taUyK6W7NEoJ2bb32Widh8w3fyhaegMdVgYRoYdpDV0JXr+SPbihJMA4CmR3jhLYhYZNOPRIaNfbqdVkmYfXdG8gCF0LCgQRk4TGgK8Ev/eHd7QoSjBHQS5RQh3/Tm5rj8fEmH6mWUquEAUKvI/3xIXyv41ZJ+OHDu3eihVWwA8cRsIU7lCUEmaSC45whRNZhnCgBd2gQC5U2pI4oJiNs4yLJcbUS6shTQrjcKxPC7GOTDoskbLwTWtHCmx2wCgcSFQxv3z4AlCW0AunJ76h8gvEGZkdYJzMl9EJpMucwdlRdvc3Fhj6W9jbXtDhDnBLGoXDIOUKocLBAwuqHDx8qGNYafqoKJCALP9KWMACkMYDkQj5pgnEIM4PXEeub3AElZxlNsudeuOo1tBt3Ta6sH53UskbCnQ9CK1l4Dp5XBRKihWkPbQkJySPprPRCvgjqb3QTJLS7sVsA+YI4uMBalQQXOnCQXCo3ivTiUibB7Qv33Qgn+R8wacTi8PEjZOEOH1IiLWwA2hJCqCV9SG7AehjMB7CO9LHrk5yg+JFjF9IoIULIUFRNcV7c8iAjwTsaqS9vONoHxoJGLA4fP4oWnoDNqkBCtLDWRl1CFLU9m5BNMOI+WXWk/SKi2BB5zNetUQJ6v4g4R0GGPaNyEmxjxtXJV9JKnz5+FC28AOtwIAFZeA6oSwig9lk1F/KFkAPegZfQhVwcbjuUlJCyVQXWaiSgF4ckolfk4tUjI2GExp3UO58+iRaeeVbgQAKysNtCX0KEi+e8Mp/ebuRKTjiVDiivgZnALdnqJSAPQtA3ASBnj3aSBHcA0GiLn4RWtLAFFqE4AragdkrQIoFP7kpr/u6TE4wd2HezDr8lQ9/TgYzpEpokdCtdkjBBS4gkIUIFAvPs82fRQkvbGhxIiBjWbpkgoR+506q6kK8VvfTexEuwseRPOlxohj17UC0BfQqJLLypw5w9YCWMUoEAsp/5VrLA7RerAgnRwmNgggT+6MUv/eN60geomI7GS3CpGL4geR1RIcGB3Jz4FFZgFdcRnAR7Ox0JmwcHooUVsA4HEqIFtYGDNglCwBgmRv430KEFXgI61deI/F/uIueWVEhAj2IfslcHJrdUL1fKYnDbPjioWFhnVqoCCdHCDjBDwjj6ELiR9PnplZEQR3+u0F8Tg/qrE1okjOntNYaXEASUtgkHBxULm8L2EWFhlTFFQjN62bS7CPmaehkJw6zOFtYioVlvr0mshBilKSF7fHxctnAw1XYgxhGQhbWfgHkSEA+/hvAJxttARkKH3jHp0SLhvt5evVgJzZQkvDw+rljYBi8/w4FExcIGMFECIjcwjE8wDstJ6NM7Jj4tEhr19mrHSohSkrB4dlaxsAJW4UCigmGVMVVCP/7NDuEyyngJPQaMiXoJYb29sgxOAqVtAlg/OytZOH7GZEv7hWoLz1qAqRKC+J9ekq8p1z7jJbgtkeDVLcGBk+CiA6Ft/vS0bGELLFb2jrCFFWCuBMTHOI5LMJZDPKwEB2uJBDs1CXZKU0Jm6fS0ZOHsB8+zYyiQKFvYBGZL6EZXbqCGIiAnwWWJBIalJsFHSUJqef60ZGEbvDiGAokyhkVguoQorl5kCHtOiZXQZYkEJz0JPZQkFK6Wzk+LFl6A7eNjiYVFxnwJLjdmYyhJMFa+BAIrwW+JhC56Em5TkrB0tTx/LliY90ydnkGBRNGCdgg6JCDG9R46wdj/fwlGteUrblI45y1sgS1hvwBbONjS8U/rkDCETvRF8BHV/87qQEnC1NWVMClwLQvWK5vHEobjF8AaCYi33I9KF4qDgJXgtEQC881ImJothQ4XHIWly8vz81dgpbxhKFtYzwKLJDA+VHGGNMF4T14CY4kEilGk0XPCTEr4ZfLi4oKbFC4vL1+CxfNz2MLZIl/UzmSskICoM+pAJRgT8hL0j4lXiwSfbn+MSRJml2f4IUld8I2bFObbPMVFomxhXcgnOWZmLZEgrT30OvAJRqIE9D2cN5sUt6gWCeiSpQnlvQaAWfuE1GGaG+SCIIGbFLbBC36NKFuY3xSecpldyluyOqDKeBLSBCNUxYWXcNO4YxwVEgaRf3VMVXcmSWDSh7ksmDksTgpPV8A2t0SULMxvCcPFpJaXO62RgPhMNeMTjEQJ6ILWOGUJ6ILW3usoAWQOD3Oz6cND3sLyK2bq6eVl0cL6y+JgZdJXVxlgkQRppUcMn2AkSkDXjAxTloB8nEXR16abLwHMnBymc4dCu8iDl0+5dvn01VYxYJhKcQ6uCsAqCQnEO45NMBIlBGQKkehIiBpQbmSahOwJ14oSDrNg+9WrpaWZ/GQmk5lMFdLCopH2WCbBoeBYt1+RhCD6xe10JfgN6NW8zNLMSdlCWmBxWGmCg4vcLLBMgpKis6AiCQzaVICuBEwYGbmeErL7JyULKZA/OTmBMeiHoFNCXBZC1QSPl4AJHm5SljCof3kwMduc3t8vYphicvv7NRbSU8BKCfInRyMKJWCuwhtQ/xOhhwZ9cQH6UX3ZL8u2SEJqf1+wsAAypd+JFgoNwFIJ8pWAAwolYIrA+tSfsgZVFBFhtidhx7WU0LlfbJOgUPpd2UJuEjBZayXIPafgcyiUAGzyG050S9yvU7INRH9bFeZ6Vvka9UR3yHQJYEEY/lyDJ7e/D1nIpRpAQ8Ha1UH2m56qHxMlScDcoucmf52kIxCrDTYxJ9zoLBXuxjZydpOJ9lXKksyUkD864ga/AH49En5TbLl8A5hK5VIWrw5y3/4WVSwhiDvkIQyKq79Huhtk0HXStupqY6ZeiBX9mKJqNyHl7IzboFJFMySUl8jJI55ABswcHYkW0gvp3MnJDLBYgszDIzWPvZMk4P+lYXTFuDPUZEfGBZhvlWt0QS/tTrJeJzEOvt+F6XXUXlW0aoYERyqV5TVkeQA5pvOo1MQ1It1puYR+ooSah52JEvBXtCb7ay0w9fFBOy5CxF36m+xt7XK1B0NDpZcKOwf8Fa2+XkmvwUiHvbZ82ZTVgcl/mVso5IW5IA8mvxzVWDAAgm4J5KvH4iokMITL9e0d/Qk/NzAul7+1LjJc89WyNiXnSrg9JOGyaPtgpdd6aa8+U/cJmfSXYjvKggX+FxjDTAOwXgKTlH+zlUlAnWIoazUSIqoktGrt1VwJ3ApRtJAGnWUTpaZ/s2iIBOLzxrXJOrIEzQ9M25QkGbFMR78NCcyvhTl+/PMg9eULZCGX7wTXQ0KU8GY1q5Pg9xoigfGpktDu/QYkdKbm7nKNG/1ZsHC3QmFuZtJjVBe6JXS5FSYY5SVg7jhRK0HptQh+BZaviYRJ3sEc/58FMMWTuDuXXiikMkbe+6lbAuHqA8m13nISQJMhEhLqJGi8UMM8CVP/mvvn5Cw/6oW7KZC6mwE0mn4J+C9WkBT/yEpwxYyQAGLqJDj7rrWEbP6/7Z3PTxpBFMfHojB2tyXaWjRBCGSVKlYM1p9LCpHIWoMtNMaoFS/qJiZtGlOMSc9cvHhu/BNIuGg0sU38v7yVRrGtzC6zMrs+0vc9cIHdgTef3fdjHju1qZf31U9kV93/CpOELGeBkYcEEvGIICFqjQQyMwqYBPrHBRSrzqH2CpAEw8YlyWedBDKyIIAEqlkjgQzOwY4TbnSovrsGYhUkCYbOfYncgwQyONo8CcTba40EEnG1AAmBffU6Y9z9DJOEdb4CIycJxOdungSDrmWTsld3DD4JRfX45jb8DSYJg3wFRl4SCE1LTZNAYxZJIDQhQSfhWN2p1Z4nHSMhYIEEg8YlRjcgHwnVYMHavZr17H/ZbZGE6qjW9qvMO01CR6l0u1+E+A1EyAoTBD+xQgJ767SP9yeB0Ch/DhHzsuv0DReiIvUNKPwxypL5vtJ2kLCjHhIblWOS0G+JBHYlx9sECdWJHOOalXDG+MGHUdOqs5RntEjK61yliHD+UYPFWDtIOL4q2knCLJOEvdrbSzwXO7NxaYFhaOYdO2n01bJrDVYEpM6o6fY6MxlD1z+XNvp7i/dDo1Fj/4w6whu6NL30UCrJdpIwziShq/Z225brrtz1V2FCq/uUxvrTyqv6s7k6TSZTTmZGDfJBaetxsvEuSzOJJ/XH9269z5q1TMvJ5WmjUbXltjuj0jf1v8mlrdvgHK5sdQ5kmEmCQsCoO5vIx6YHalf3gEeL5dOvR7gvD19bek3zhH9PrTTgcefHsj6+UTN/jRq2OqotzmHVztMX2KlDisCTryrazOH0AUYVmjnY+j1SbBI2CAqYbHYOL/1sEhbR8tBkb+YQ2GSDcPkCLQ9M3bZmDn2KAQghtPx/5RyGQgYggAwY0TmIqhv0b6Zy27d3/UAh3nVpKAwToEkW5xxuQkN/KKgoSjDkvzTR8wCaHpiK4pyD6dSjc4CuQ3GZgxUS5tHywETLZfkBSHiLloems7K4zMECCdtoeWj6US4+AAnjaHhwqohzDvwk9D9Fw0PThH5KnCehBw0PTif6kfMkoG+A6Bz0ScdJCHag3cEpop8Tp0kI4iIkSOdw4jQJCAJInesRh0lQ+tDqADWpV4ijJPhnKVodoo6EOofGJASfoc1h6qc+4SAJwzlciQYqWa9Qx0gI9iAHYPVdvxB6PsUQg66pApobsE71M6Hno/MrqYO9u81JB1PtuMwAW7Si2xHJf5kfau+Jxzc24rmVxQJWD1pAZyJXn1AtrAuhZSVUC4cJE2gDVFW/ANqjgSCFl5ekAAAAAElFTkSuQmCC;" parent="1" vertex="1">
                    <mxGeometry x="240" y="218.63" width="96.34" height="32.73" as="geometry"/>
                </mxCell>
                <mxCell id="28" style="edgeStyle=orthogonalEdgeStyle;rounded=0;orthogonalLoop=1;jettySize=auto;html=1;entryX=0.5;entryY=0;entryDx=0;entryDy=0;strokeColor=#000000;" parent="1" source="12" target="13" edge="1">
                    <mxGeometry relative="1" as="geometry">
                        <Array as="points">
                            <mxPoint x="288" y="360"/>
                            <mxPoint x="230" y="360"/>
                        </Array>
                    </mxGeometry>
                </mxCell>
                <mxCell id="29" style="edgeStyle=orthogonalEdgeStyle;rounded=0;orthogonalLoop=1;jettySize=auto;html=1;entryX=0.5;entryY=0;entryDx=0;entryDy=0;strokeColor=#000000;" parent="1" source="12" target="25" edge="1">
                    <mxGeometry relative="1" as="geometry">
                        <Array as="points">
                            <mxPoint x="288" y="360"/>
                            <mxPoint x="530" y="360"/>
                        </Array>
                    </mxGeometry>
                </mxCell>
                <mxCell id="30" style="edgeStyle=orthogonalEdgeStyle;rounded=0;orthogonalLoop=1;jettySize=auto;html=1;entryX=0.5;entryY=0;entryDx=0;entryDy=0;strokeColor=#000000;" parent="1" source="12" target="22" edge="1">
                    <mxGeometry relative="1" as="geometry">
                        <Array as="points">
                            <mxPoint x="288" y="360"/>
                            <mxPoint x="380" y="360"/>
                        </Array>
                    </mxGeometry>
                </mxCell>
                <mxCell id="12" value="&lt;font style=&quot;font-size: 18px&quot; color=&quot;#cc0000&quot;&gt;Master&lt;/font&gt;&lt;font color=&quot;#000000&quot; style=&quot;font-size: 18px&quot;&gt;(test.jmx)&lt;/font&gt;" style="text;html=1;resizable=0;autosize=1;align=center;verticalAlign=middle;points=[];fillColor=none;strokeColor=none;rounded=0;" parent="1" vertex="1">
                    <mxGeometry x="218.16999999999996" y="255" width="140" height="20" as="geometry"/>
                </mxCell>
                <mxCell id="44" style="edgeStyle=orthogonalEdgeStyle;rounded=0;orthogonalLoop=1;jettySize=auto;html=1;entryX=0.5;entryY=1;entryDx=0;entryDy=0;strokeColor=#000000;" parent="1" source="13" target="34" edge="1">
                    <mxGeometry relative="1" as="geometry">
                        <Array as="points">
                            <mxPoint x="230" y="520"/>
                            <mxPoint x="670" y="520"/>
                            <mxPoint x="670" y="330"/>
                            <mxPoint x="456" y="330"/>
                        </Array>
                    </mxGeometry>
                </mxCell>
                <mxCell id="13" value="EC2 instance" style="points=[[0,0],[0.25,0],[0.5,0],[0.75,0],[1,0],[1,0.25],[1,0.5],[1,0.75],[1,1],[0.75,1],[0.5,1],[0.25,1],[0,1],[0,0.75],[0,0.5],[0,0.25]];outlineConnect=0;gradientColor=none;html=1;whiteSpace=wrap;fontSize=12;fontStyle=0;shape=mxgraph.aws4.group;grIcon=mxgraph.aws4.group_ec2_instance_contents;strokeColor=#D86613;fillColor=none;verticalAlign=top;align=left;spacingLeft=30;fontColor=#D86613;dashed=0;" parent="1" vertex="1">
                    <mxGeometry x="160" y="390" width="140" height="90" as="geometry"/>
                </mxCell>
                <mxCell id="20" value="" style="shape=image;verticalLabelPosition=bottom;labelBackgroundColor=#ffffff;verticalAlign=top;aspect=fixed;imageAspect=0;image=data:image/png,iVBORw0KGgoAAAANSUhEUgAAAgkAAACxCAMAAAB5ut77AAAABGdBTUEAALGPC/xhBQAAAAFzUkdCAK7OHOkAAAL3UExURUdwTAAAAAAAAAAAANIhKMcdOQAAAAAAAIIcJgAAAAAAAAAAACgWLwAAANEgLgAAANEiKNIhKA4KENEkK9IhJ9IgKNIqKAAAAAAAAMsfNNIhKNQiLNIhKNIhKMYyO9IhKAAAANMhKAAAANEiKtMhKAAAAAAAAAYGEM8gLNEiKtIhKAAAAAAAAAAAAAAAAAAAAAAAAE1NTdIhKdIhKAAAAEhHTV0/YNIiKQAAAAkJCdIiKHgpgAAAAE1NTQAAAAAAANAiLNM1MgAAAAAAAE1NTc8nLgAAAAAAAAAAANEhKtAlLAAAAAAAAAAAAIIneQAAANIiKgAAAAAAAIUmdwAAAMohN9EhKdIhKIImeQAAAAAAAAAAANIhKdIiKtIgKMshNk1NTZElbIQmdwAAAM0hMHspfismZOx6JuZtJ4AnesohN9EvM4wjcoIneex+JeZjJsMgPdIhKIUmd4ErdG0rhXkpf+l2JtIhKNtUMKYgXHsoffaXI+l2J+t8Jk1NTa8fUk1NTZUia40kcdY6MW0siNpJLvaYI8UhPK8fU2sshrcgSrogRt5WLK0fVEdEVPGNI70gRPaWI9IiKvWUI+ZuKLIgTrwgRKsgVkhHUKggWW8rhqMfX/WVI/WVI/KMJOh0JrAfUd9WK7wgRehyJ+RnKb4gQ91TLc0kNU1NTa0gVVQrgagfWqIgXy8nZ+FgKswhNdhDL84tOSsmZC8nZ99ZKzYnbSomY754fL5/fCglYUwqeygnYsNwbgAAANIhKE1NTcogNswhNs0iNfaZI+l4JveaI7wgRb4gQ8AgQbogR8YgOsQgPIInebggScggOLYgS7QgTbIgT64gU7AgUYcmdX8oe99XK+BbK6wgVeRmKYUmd8IgPtpILuFfKqkgWfSRJOJjKnwofdlEL8EgP91SLeh1JttMLuZvJ+VqKKogV9xPLddBL+dyJ/KOJPWVI9U6MacgW4olc9Y+MN5ULOZsKM8mNKUgXY0kcctDSmotisB0dLKnqMRhYzWlyX0AAAC9dFJOUwBJMcxbCr3eAqqI9wXCGTRO1Qo37WcVD/wQ3h758wbN4NrwVbjrIBokRONcKU7YsWiodqRWMBKO0RSG/m7kmkOa/uN7eiuQyuaySXQ8tm2Ab5Wgz4vJYv1CpWKEezDG9Lcv6Mc9WfxDIISv0BmZww3m6ashTejXvsbxve8tbPialMPy0PTu4oRDocjzedhh0Han5r+VcKyAS7Ww/tRTg+zqXV+w3pKU1s1V923O2/Pfsvx3oN8+vf7EjJGsfyRyt/0AAB1iSURBVHja7J1bTFPZGsf3KNVtxE7LpSOl0IPFofR4pWqHxktR69jOMcMYoTmRi8khgUACIScBEuSEhMC8EA3Cgw+oIRqdp1ETk5mH021L5cVJfNSQI3EygdF4GZNREqLzcNba17Vv3RvrbtO6/onadq+1S/f69Vv/71trI0F8PF2aHHwyOdRDYH3a6pmYS/zxx5Mn0+34WnzSOjs2N5egUXh1SU/7RqezRvZivxNVi7feLGtSDtrYVM5ZWh+qKKMiRc6Ay4S87LJaQwqtg1arlT1TtVVJITyqH6D2wTkghgQ9KJAVFFVkkr5aREkUCZRImuSBV2sUT1lYGRE6FvmFjsUUVaHUHjRjSbNQSqrAw/oBFoEGgSEBoHBWs0MYXuo8TRIoyhMUN2kBr9lJ+QlLvGyHMvbf3jAmIQMgJOYYEhIMCedJrR4heKlbFEiod/NqboTDXiRCoZkeI4s81NthBAk1usE7m8O+XtiqfjUklJXKZMYDu+qpgQWBMwqvXg1p9HBHKDsY5kI5CeI4keegKCs6iQQoCnz5K6Xna4bRpNLNPzfVw9BQvBoS8DB+DI+Q4FFgSTiv0cUHJnsw43u1SCDCYO73I3NAGXAXwGK4JVYRxABHsSgQuUErRyEmIa1ZAwBBRAJEIblTKO+lHDZTEfhLiwTITJFg/uopykfUwL9E9rMfjLpL0tHsoSgniUlInzrGEggJXFC4nDyFpMOBT5YFKJAAogDViGYcbsLmkKQdNcJMgI50hGLyTUxCegpK04kEj0KCnx4mknZy0hbBLcsCFEiA3tKLZBzQIngROFhYKhU8qo+dLzAJ6RA5mRBIGBSmh+lkncAYOOlCEkWFNUmoYRuzVMC0oQ15iWnhKE3ydpiEdOhyQiBhLCHkka+SdeK+0y5pFqBEAjCWvZwxjFAe+mtuRdOO8gty64lJSLeGEgIJY2OoUbCpd+LneWAcxVmAEglgHO3sQz9FNXHGURh7ECFk6SgmId35YzdPQmJwWpRHdqj3Ery/X5IFKJHg5ytQMOMwc87AYUYaXCAwCZlNG67cm+ZJmBDnkeokkHY+Ergj4ixAiYQWnhakABHgogPTwItJyKjK++7d44PCxKC44KxOggVxB5XiLECBhKBQXAZD3iaMoofLFi4IdWVMQmY0dQ/oPAPC5HRCXFFQ37BSiawbWMRZgAIJIT7VbEbbOvmTkA6FQCIlwaGw6GwXkRCplMiCB1i3W4QgsEFhbEJScB5U7eaOCF9ngvSI3J6chCahaORFy0fFfGApoaS5qAIJakqyFlmPR1inzi7RJDBB4bK04Ky+8OBDpnja7nnVSSgJUHzRCLjEMiHQmMo4s1GOScisevqWlmgW+iAIY9KCs2qNEa42IMu9pRF08QGQEPLz8oVA4KesZmnGwXlGH9+pUYsEu3zNudQi9gk2iUx4jHWJvPry5RLDwmRickIoOM8lBs93d3erLks3Spx+CF18UNipUslyApcc0J0KzfyeJ6soyGDHmG6T8PTpS5aFvrFLjGscOz/Z3d13hZ4zVLe1AqvXVI3Ijy4+yEhw5nHHwmA40X7Vds42AP8QwiRkzCS8ffqUZgHC0H61myeAk1qJsVBptrYgJHhreBVb3KKMQyYnF2XKyjEJmaokPHvLszA1dU+mPrWeXiUSKpNVlviMQ0F0ecGsuJ0Nk5CeSsIzIJaFvvalJRkJatsTbMAD+l0igemBX3xQJwFkHBXifi5+4alfYUckJiEtap+fn2dYADC0d7POEZXalqUm+d52uAzl0yLBVCRP68C5mCykGgxptWLowiQYq44ff52fZ2B4+3ZqiHULeiYHuOTgU/i6c3SokgC8gEN654PZwSUNwIXaS+Sdgr01JkyCkQnkwK9ALAvXOq7wzlF7crBQss2ojAVo1CDBqbTKBBLQC/TXvtChdLi8hXUgmASDNL6wsMCz0H6VtgsvX/LlBSi15adKhQ3q9KvO5CQUKm5BgLOCi6tUUj7J/jXSyxUfMQlGzQ0LCzwLU+2sWxCxcJVQTwBcypGiLSkJXvFCFScrRfUzow5vkQmIDIgJ3lsTwD7ByLnhERDLwjXbtflnchbUyko+LpzL3YM3GQkw4yhWeL2e4uqONiu8e02wjaQFrjT2l2MSDJwbHj58xLMwM847R668AFDoU7kXDiYAfqUDNVwWoEICOF6mtMrdU8Yb0JIWutRUD11IeXMNBIPymlaTO5TIReLhTlJcfPPwIc/CAJJFCKWmpSH1vD5SqlZlaFInQTHjoBWAI8j6Qx9Teyrz9DqYB/w9UR96h6zGEuenPje8oVFgWDg7hWQRPAtX1Eq/TtUFAi+7BUmZBAslXnwS1Ize8tKMFqTL/ObVVZYwCaucGxYXF3kWrp9FswieBbWQELTb7dXKhwrBIegZnXa7ReGbb7erLTGFRIeCTS3wxtiI1Sv6TRp5Hk+/EkYej4f7TRoeRbXhAVdT8PnzRZ6FOz0DjxbkLFzJ6C9aIkvctnI8UMbPDb8/51h483BmhnOOPAyQhSF8nXJfM78DPWdgeDNguiNkEUJguIa/kbkv8+jjxwILwXEkixBYmMHXKfd16zEUy8J12yiSRfAsXMM5eO4r/BsQB8Oo7TrjFjgYWBbwL2PMffWMvvhNYGG8Y/H5opgFCMNVfJ1yXzUvgDgWRk3XOeeIsvBjB75OOS/37ZE/X3AwPJ4JClmEUGp6NI6vU+4rtNz1JxDDwgh5i3YLEhbu4Awy92VZXl4eec2xUF3IOUcRC4X4OuW8ym/OLi93vX7NsHCLGBCyCKHseB1fp9xX0ywQjQJkoTn8As0oWRYG8J2Eua/SVkjCbMNrWrfIEc45IiyMauQNtn67XBX8voPtO9arascunT/nFyfUT7L+RAEeyJTVOcuoqw6SELRwzhFhYVTLJLiU9wBwJnNdNIm26qxc7kp2kuihT3LsCnaLdI4g/k0/GOYa5DMHdJ2smgVhtqEOKECOCFkEC4M2CPR/zKAgkx4Sop/r+9Q7k57ks0+ShH13RQIjvpd5tI9tcJF5qudcZANHAggKdXWlFs45CiwMdBDmsIEkfKsP/42YBP0knGMbDOsnoTEejwtBwUeOMHZBYGF0nAz66vIMJOFfuj709igmQT8J7HxAHtBNgulmnBYbFMwuEBdQFt79/N+fu/5aqTMbSMLmWj0f+iAmQU1wuI+yjyEJ/7l79wCJPtNDQlOcEwwKfhLOEAwLdaMjQAM/rbz/6/1Kl5E+IbpHzyx2GJOgl4Qz4M9e+tnRu3d/OKCLBFtrXNBsawkICfYuoBsXbi/PLgOtvFv56f27lXpDSTip49N+Hs0ICflfi97lVFaQMHyAe/4DeKAvJgTiqL4nb8yiAiTcXrm9AmQzlITjOvLIbzNDwh7xu6zPDhJ2g1AAn9TC4KCLBHcMBQGEhPjsrJQFKK+hWWQ0ukb7067NDAk7s5GE3efYPBL8eyBfl2PslIYEIZEQsVBoMAlHNH/SqmhGSKjdnJUk1LJ5JDAMwwV6SGiOxZCg0GqzIHkEykIlYTAJm1IsMBpGwjfRbCThDPQHII/MBxPDxX16SAjFYggLfqIBTSQQhY0mYfMXqRUYDSPhqywlYZjOIy+CFDJfDwltMU5MSGhDpwoEhBuk0SREt6dWYDSKhDXRLCXhIp1HDsOHekhoiMUQFnxESOQaBBbyCMNJOJhagdEoEo5lKwlwXjgKC4zn9JBQHUPVWtocl4otQpPGk3A4tQKjQSTkH89WEqBXPAMf1uohoUFEQkCSSPAstJYSxpMQ3ZZSgdEgEuSRKGtIOAoswjBdVdAmISwCIeZ2ixIJQS4iHSR8k1KB0SASNmQvCeyCw1E9JDQ8QEHoJAKiRIJXDZEWEk6kVGA0hoTajdlLAsEsQu7VQUL1AyCBhEJzK5JHCKon0kPCxoJUCozGkLA/msUk0BsT4IqkJgmdDx4gLDQQ34sSCa7Y5CKC7rSQkHQkq6Ifi4T81Vzgrz8WCfkfbczzdZNAb1YaJrRJCN6/fx9hIWxqFbkGBoROsznQQKaHhGOpFBi1SCDX7Dq186utW2Dw2fK3TSdPb6/S/kzboimSQG7bdWrD2uPwXTdvObzpn6f3VH0wAgWHjpzYcRxMVxuPr91weo02CQVw4emiDhIC92mxLNwgi2MSxeMNrurOWLwtPbNDdEcqBcakJFTtX7dFIW89+Fnyr2r+SaVJbINEx9RmtapdJ5Te9eR2lQ5HJCfejx78x0HxubZKkIP6QMTM//vlF4SFPPKmlIRYQyfcuxBIk0+IRr9MocCoTkL+3zdtVuuy5bskueuhHVFdUtxlQ+5Zp/6uB9foCkDCz7ZNfvn+z979vbS15AEAH+3VHE2qlyzbRC6Ekktil/wwLEEiDWZRbg2rxrWxl6gPJfH6kGJA9PqgL6IvdRXBFytuX4rQh9LC/gUH9r5Ye2t/WQXxglD65Ju+6Ouec/LjTHJm5vyccyy783BbStO5Zj6Zme93vmdi3B7j8Vu+lS1Me75//x9E++23f7eZJiGuI8GIk+CM3ya/qnEA84m+zypsAUSvEZvMgVtCPq/NRsqWRxCoDIPQMP3HW8jCBhdSvkdZeKj0YUgDJHToSDBiJIRs8q9rQsxFTMTLapegZDbpCMpKKL0fXcj3zjAJG1//4FrZwsNbf6oKJMT2HTBPgt2hPcGIlNDVoWgo7WOSPFYfy2qW0NWkrNeInASvsPK3o1kZBYGZ/voVsvAcPKkKJCrtH8BECdinmFpZTRJae5QO5mjVJs417Ga1S6i3KX1hh4ssQXggyBVjqUr4+97eHmThTsvb33+XWnj/MzBVwoj2BCNCwphd+WhOQGX20STLapcQVdFrrJ0soZfbI+DeOKMkPNnbgyw84vePVUGl0Kb/AsyVEFOaYLQrkBBRNZzioKh7Xa2EgKrpJOwnSrgJQDNLV8Kt3dd7kIVfPNNwIFG08P5vt1r+ylCUgNiTtStMMA7KS1A7oDEnriJBjYQxt7rXhl0kCXZnwk1ZwsZrrlUsPGB2qgIJwcKj7/786OEjmnNCWLqgjilMMPbLSgi51Q7oIKNfQkJ1r40OggQ2it/pGLVf3H39WsSwAx6U945igmGanxh+pCnBNywN6JQlGJN1chKCXlZ1G9ctwe9T3+s9kgTCT2GMhJVdrlUsTHt+qQokxHnhYQNNCXZpvsjrUJRg7A7JSHCG1Q8J627VKcER09LrAEECS1vCk91dyMJjfv+ItPCI7o7RJd34DShKMIYCMhJGWC0t7NAnYUhTrzandRLa1t68gSy0tLzeqw4qSxjef09XgrMRN0OTE4x2Z4Qsod6taUyK6W7NEoJ2bb32Widh8w3fyhaegMdVgYRoYdpDV0JXr+SPbihJMA4CmR3jhLYhYZNOPRIaNfbqdVkmYfXdG8gCF0LCgQRk4TGgK8Ev/eHd7QoSjBHQS5RQh3/Tm5rj8fEmH6mWUquEAUKvI/3xIXyv41ZJ+OHDu3eihVWwA8cRsIU7lCUEmaSC45whRNZhnCgBd2gQC5U2pI4oJiNs4yLJcbUS6shTQrjcKxPC7GOTDoskbLwTWtHCmx2wCgcSFQxv3z4AlCW0AunJ76h8gvEGZkdYJzMl9EJpMucwdlRdvc3Fhj6W9jbXtDhDnBLGoXDIOUKocLBAwuqHDx8qGNYafqoKJCALP9KWMACkMYDkQj5pgnEIM4PXEeub3AElZxlNsudeuOo1tBt3Ta6sH53UskbCnQ9CK1l4Dp5XBRKihWkPbQkJySPprPRCvgjqb3QTJLS7sVsA+YI4uMBalQQXOnCQXCo3ivTiUibB7Qv33Qgn+R8wacTi8PEjZOEOH1IiLWwA2hJCqCV9SG7AehjMB7CO9LHrk5yg+JFjF9IoIULIUFRNcV7c8iAjwTsaqS9vONoHxoJGLA4fP4oWnoDNqkBCtLDWRl1CFLU9m5BNMOI+WXWk/SKi2BB5zNetUQJ6v4g4R0GGPaNyEmxjxtXJV9JKnz5+FC28AOtwIAFZeA6oSwig9lk1F/KFkAPegZfQhVwcbjuUlJCyVQXWaiSgF4ckolfk4tUjI2GExp3UO58+iRaeeVbgQAKysNtCX0KEi+e8Mp/ebuRKTjiVDiivgZnALdnqJSAPQtA3ASBnj3aSBHcA0GiLn4RWtLAFFqE4AragdkrQIoFP7kpr/u6TE4wd2HezDr8lQ9/TgYzpEpokdCtdkjBBS4gkIUIFAvPs82fRQkvbGhxIiBjWbpkgoR+506q6kK8VvfTexEuwseRPOlxohj17UC0BfQqJLLypw5w9YCWMUoEAsp/5VrLA7RerAgnRwmNgggT+6MUv/eN60geomI7GS3CpGL4geR1RIcGB3Jz4FFZgFdcRnAR7Ox0JmwcHooUVsA4HEqIFtYGDNglCwBgmRv430KEFXgI61deI/F/uIueWVEhAj2IfslcHJrdUL1fKYnDbPjioWFhnVqoCCdHCDjBDwjj6ELiR9PnplZEQR3+u0F8Tg/qrE1okjOntNYaXEASUtgkHBxULm8L2EWFhlTFFQjN62bS7CPmaehkJw6zOFtYioVlvr0mshBilKSF7fHxctnAw1XYgxhGQhbWfgHkSEA+/hvAJxttARkKH3jHp0SLhvt5evVgJzZQkvDw+rljYBi8/w4FExcIGMFECIjcwjE8wDstJ6NM7Jj4tEhr19mrHSohSkrB4dlaxsAJW4UCigmGVMVVCP/7NDuEyyngJPQaMiXoJYb29sgxOAqVtAlg/OytZOH7GZEv7hWoLz1qAqRKC+J9ekq8p1z7jJbgtkeDVLcGBk+CiA6Ft/vS0bGELLFb2jrCFFWCuBMTHOI5LMJZDPKwEB2uJBDs1CXZKU0Jm6fS0ZOHsB8+zYyiQKFvYBGZL6EZXbqCGIiAnwWWJBIalJsFHSUJqef60ZGEbvDiGAokyhkVguoQorl5kCHtOiZXQZYkEJz0JPZQkFK6Wzk+LFl6A7eNjiYVFxnwJLjdmYyhJMFa+BAIrwW+JhC56Em5TkrB0tTx/LliY90ydnkGBRNGCdgg6JCDG9R46wdj/fwlGteUrblI45y1sgS1hvwBbONjS8U/rkDCETvRF8BHV/87qQEnC1NWVMClwLQvWK5vHEobjF8AaCYi33I9KF4qDgJXgtEQC881ImJothQ4XHIWly8vz81dgpbxhKFtYzwKLJDA+VHGGNMF4T14CY4kEilGk0XPCTEr4ZfLi4oKbFC4vL1+CxfNz2MLZIl/UzmSskICoM+pAJRgT8hL0j4lXiwSfbn+MSRJml2f4IUld8I2bFObbPMVFomxhXcgnOWZmLZEgrT30OvAJRqIE9D2cN5sUt6gWCeiSpQnlvQaAWfuE1GGaG+SCIIGbFLbBC36NKFuY3xSecpldyluyOqDKeBLSBCNUxYWXcNO4YxwVEgaRf3VMVXcmSWDSh7ksmDksTgpPV8A2t0SULMxvCcPFpJaXO62RgPhMNeMTjEQJ6ILWOGUJ6ILW3usoAWQOD3Oz6cND3sLyK2bq6eVl0cL6y+JgZdJXVxlgkQRppUcMn2AkSkDXjAxTloB8nEXR16abLwHMnBymc4dCu8iDl0+5dvn01VYxYJhKcQ6uCsAqCQnEO45NMBIlBGQKkehIiBpQbmSahOwJ14oSDrNg+9WrpaWZ/GQmk5lMFdLCopH2WCbBoeBYt1+RhCD6xe10JfgN6NW8zNLMSdlCWmBxWGmCg4vcLLBMgpKis6AiCQzaVICuBEwYGbmeErL7JyULKZA/OTmBMeiHoFNCXBZC1QSPl4AJHm5SljCof3kwMduc3t8vYphicvv7NRbSU8BKCfInRyMKJWCuwhtQ/xOhhwZ9cQH6UX3ZL8u2SEJqf1+wsAAypd+JFgoNwFIJ8pWAAwolYIrA+tSfsgZVFBFhtidhx7WU0LlfbJOgUPpd2UJuEjBZayXIPafgcyiUAGzyG050S9yvU7INRH9bFeZ6Vvka9UR3yHQJYEEY/lyDJ7e/D1nIpRpAQ8Ha1UH2m56qHxMlScDcoucmf52kIxCrDTYxJ9zoLBXuxjZydpOJ9lXKksyUkD864ga/AH49En5TbLl8A5hK5VIWrw5y3/4WVSwhiDvkIQyKq79Huhtk0HXStupqY6ZeiBX9mKJqNyHl7IzboFJFMySUl8jJI55ABswcHYkW0gvp3MnJDLBYgszDIzWPvZMk4P+lYXTFuDPUZEfGBZhvlWt0QS/tTrJeJzEOvt+F6XXUXlW0aoYERyqV5TVkeQA5pvOo1MQ1It1puYR+ooSah52JEvBXtCb7ay0w9fFBOy5CxF36m+xt7XK1B0NDpZcKOwf8Fa2+XkmvwUiHvbZ82ZTVgcl/mVso5IW5IA8mvxzVWDAAgm4J5KvH4iokMITL9e0d/Qk/NzAul7+1LjJc89WyNiXnSrg9JOGyaPtgpdd6aa8+U/cJmfSXYjvKggX+FxjDTAOwXgKTlH+zlUlAnWIoazUSIqoktGrt1VwJ3ApRtJAGnWUTpaZ/s2iIBOLzxrXJOrIEzQ9M25QkGbFMR78NCcyvhTl+/PMg9eULZCGX7wTXQ0KU8GY1q5Pg9xoigfGpktDu/QYkdKbm7nKNG/1ZsHC3QmFuZtJjVBe6JXS5FSYY5SVg7jhRK0HptQh+BZaviYRJ3sEc/58FMMWTuDuXXiikMkbe+6lbAuHqA8m13nISQJMhEhLqJGi8UMM8CVP/mvvn5Cw/6oW7KZC6mwE0mn4J+C9WkBT/yEpwxYyQAGLqJDj7rrWEbP6/7Z3PTxpBFMfHojB2tyXaWjRBCGSVKlYM1p9LCpHIWoMtNMaoFS/qJiZtGlOMSc9cvHhu/BNIuGg0sU38v7yVRrGtzC6zMrs+0vc9cIHdgTef3fdjHju1qZf31U9kV93/CpOELGeBkYcEEvGIICFqjQQyMwqYBPrHBRSrzqH2CpAEw8YlyWedBDKyIIAEqlkjgQzOwY4TbnSovrsGYhUkCYbOfYncgwQyONo8CcTba40EEnG1AAmBffU6Y9z9DJOEdb4CIycJxOdungSDrmWTsld3DD4JRfX45jb8DSYJg3wFRl4SCE1LTZNAYxZJIDQhQSfhWN2p1Z4nHSMhYIEEg8YlRjcgHwnVYMHavZr17H/ZbZGE6qjW9qvMO01CR6l0u1+E+A1EyAoTBD+xQgJ767SP9yeB0Ch/DhHzsuv0DReiIvUNKPwxypL5vtJ2kLCjHhIblWOS0G+JBHYlx9sECdWJHOOalXDG+MGHUdOqs5RntEjK61yliHD+UYPFWDtIOL4q2knCLJOEvdrbSzwXO7NxaYFhaOYdO2n01bJrDVYEpM6o6fY6MxlD1z+XNvp7i/dDo1Fj/4w6whu6NL30UCrJdpIwziShq/Z225brrtz1V2FCq/uUxvrTyqv6s7k6TSZTTmZGDfJBaetxsvEuSzOJJ/XH9269z5q1TMvJ5WmjUbXltjuj0jf1v8mlrdvgHK5sdQ5kmEmCQsCoO5vIx6YHalf3gEeL5dOvR7gvD19bek3zhH9PrTTgcefHsj6+UTN/jRq2OqotzmHVztMX2KlDisCTryrazOH0AUYVmjnY+j1SbBI2CAqYbHYOL/1sEhbR8tBkb+YQ2GSDcPkCLQ9M3bZmDn2KAQghtPx/5RyGQgYggAwY0TmIqhv0b6Zy27d3/UAh3nVpKAwToEkW5xxuQkN/KKgoSjDkvzTR8wCaHpiK4pyD6dSjc4CuQ3GZgxUS5tHywETLZfkBSHiLloems7K4zMECCdtoeWj6US4+AAnjaHhwqohzDvwk9D9Fw0PThH5KnCehBw0PTif6kfMkoG+A6Bz0ScdJCHag3cEpop8Tp0kI4iIkSOdw4jQJCAJInesRh0lQ+tDqADWpV4ijJPhnKVodoo6EOofGJASfoc1h6qc+4SAJwzlciQYqWa9Qx0gI9iAHYPVdvxB6PsUQg66pApobsE71M6Hno/MrqYO9u81JB1PtuMwAW7Si2xHJf5kfau+Jxzc24rmVxQJWD1pAZyJXn1AtrAuhZSVUC4cJE2gDVFW/ANqjgSCFl5ekAAAAAElFTkSuQmCC;" parent="1" vertex="1">
                    <mxGeometry x="181.82999999999998" y="418.64" width="96.34" height="32.73" as="geometry"/>
                </mxCell>
                <mxCell id="21" value="&lt;font style=&quot;font-size: 18px&quot; color=&quot;#0000ff&quot;&gt;Slave&lt;/font&gt;&lt;font color=&quot;#000000&quot; style=&quot;font-size: 18px&quot;&gt;(test.jmx)&lt;/font&gt;" style="text;html=1;resizable=0;autosize=1;align=center;verticalAlign=middle;points=[];fillColor=none;strokeColor=none;rounded=0;" parent="1" vertex="1">
                    <mxGeometry x="164.99999999999994" y="456.37" width="130" height="20" as="geometry"/>
                </mxCell>
                <mxCell id="42" style="edgeStyle=orthogonalEdgeStyle;rounded=0;orthogonalLoop=1;jettySize=auto;html=1;strokeColor=#000000;" parent="1" source="22" target="34" edge="1">
                    <mxGeometry relative="1" as="geometry">
                        <Array as="points">
                            <mxPoint x="380" y="520"/>
                            <mxPoint x="670" y="520"/>
                            <mxPoint x="670" y="330"/>
                            <mxPoint x="456" y="330"/>
                        </Array>
                    </mxGeometry>
                </mxCell>
                <mxCell id="22" value="EC2 instance" style="points=[[0,0],[0.25,0],[0.5,0],[0.75,0],[1,0],[1,0.25],[1,0.5],[1,0.75],[1,1],[0.75,1],[0.5,1],[0.25,1],[0,1],[0,0.75],[0,0.5],[0,0.25]];outlineConnect=0;gradientColor=none;html=1;whiteSpace=wrap;fontSize=12;fontStyle=0;shape=mxgraph.aws4.group;grIcon=mxgraph.aws4.group_ec2_instance_contents;strokeColor=#D86613;fillColor=none;verticalAlign=top;align=left;spacingLeft=30;fontColor=#D86613;dashed=0;" parent="1" vertex="1">
                    <mxGeometry x="310" y="390" width="140" height="90" as="geometry"/>
                </mxCell>
                <mxCell id="23" value="" style="shape=image;verticalLabelPosition=bottom;labelBackgroundColor=#ffffff;verticalAlign=top;aspect=fixed;imageAspect=0;image=data:image/png,iVBORw0KGgoAAAANSUhEUgAAAgkAAACxCAMAAAB5ut77AAAABGdBTUEAALGPC/xhBQAAAAFzUkdCAK7OHOkAAAL3UExURUdwTAAAAAAAAAAAANIhKMcdOQAAAAAAAIIcJgAAAAAAAAAAACgWLwAAANEgLgAAANEiKNIhKA4KENEkK9IhJ9IgKNIqKAAAAAAAAMsfNNIhKNQiLNIhKNIhKMYyO9IhKAAAANMhKAAAANEiKtMhKAAAAAAAAAYGEM8gLNEiKtIhKAAAAAAAAAAAAAAAAAAAAAAAAE1NTdIhKdIhKAAAAEhHTV0/YNIiKQAAAAkJCdIiKHgpgAAAAE1NTQAAAAAAANAiLNM1MgAAAAAAAE1NTc8nLgAAAAAAAAAAANEhKtAlLAAAAAAAAAAAAIIneQAAANIiKgAAAAAAAIUmdwAAAMohN9EhKdIhKIImeQAAAAAAAAAAANIhKdIiKtIgKMshNk1NTZElbIQmdwAAAM0hMHspfismZOx6JuZtJ4AnesohN9EvM4wjcoIneex+JeZjJsMgPdIhKIUmd4ErdG0rhXkpf+l2JtIhKNtUMKYgXHsoffaXI+l2J+t8Jk1NTa8fUk1NTZUia40kcdY6MW0siNpJLvaYI8UhPK8fU2sshrcgSrogRt5WLK0fVEdEVPGNI70gRPaWI9IiKvWUI+ZuKLIgTrwgRKsgVkhHUKggWW8rhqMfX/WVI/WVI/KMJOh0JrAfUd9WK7wgRehyJ+RnKb4gQ91TLc0kNU1NTa0gVVQrgagfWqIgXy8nZ+FgKswhNdhDL84tOSsmZC8nZ99ZKzYnbSomY754fL5/fCglYUwqeygnYsNwbgAAANIhKE1NTcogNswhNs0iNfaZI+l4JveaI7wgRb4gQ8AgQbogR8YgOsQgPIInebggScggOLYgS7QgTbIgT64gU7AgUYcmdX8oe99XK+BbK6wgVeRmKYUmd8IgPtpILuFfKqkgWfSRJOJjKnwofdlEL8EgP91SLeh1JttMLuZvJ+VqKKogV9xPLddBL+dyJ/KOJPWVI9U6MacgW4olc9Y+MN5ULOZsKM8mNKUgXY0kcctDSmotisB0dLKnqMRhYzWlyX0AAAC9dFJOUwBJMcxbCr3eAqqI9wXCGTRO1Qo37WcVD/wQ3h758wbN4NrwVbjrIBokRONcKU7YsWiodqRWMBKO0RSG/m7kmkOa/uN7eiuQyuaySXQ8tm2Ab5Wgz4vJYv1CpWKEezDG9Lcv6Mc9WfxDIISv0BmZww3m6ashTejXvsbxve8tbPialMPy0PTu4oRDocjzedhh0Han5r+VcKyAS7Ww/tRTg+zqXV+w3pKU1s1V923O2/Pfsvx3oN8+vf7EjJGsfyRyt/0AAB1iSURBVHja7J1bTFPZGsf3KNVtxE7LpSOl0IPFofR4pWqHxktR69jOMcMYoTmRi8khgUACIScBEuSEhMC8EA3Cgw+oIRqdp1ETk5mH021L5cVJfNSQI3EygdF4GZNREqLzcNba17Vv3RvrbtO6/onadq+1S/f69Vv/71trI0F8PF2aHHwyOdRDYH3a6pmYS/zxx5Mn0+34WnzSOjs2N5egUXh1SU/7RqezRvZivxNVi7feLGtSDtrYVM5ZWh+qKKMiRc6Ay4S87LJaQwqtg1arlT1TtVVJITyqH6D2wTkghgQ9KJAVFFVkkr5aREkUCZRImuSBV2sUT1lYGRE6FvmFjsUUVaHUHjRjSbNQSqrAw/oBFoEGgSEBoHBWs0MYXuo8TRIoyhMUN2kBr9lJ+QlLvGyHMvbf3jAmIQMgJOYYEhIMCedJrR4heKlbFEiod/NqboTDXiRCoZkeI4s81NthBAk1usE7m8O+XtiqfjUklJXKZMYDu+qpgQWBMwqvXg1p9HBHKDsY5kI5CeI4keegKCs6iQQoCnz5K6Xna4bRpNLNPzfVw9BQvBoS8DB+DI+Q4FFgSTiv0cUHJnsw43u1SCDCYO73I3NAGXAXwGK4JVYRxABHsSgQuUErRyEmIa1ZAwBBRAJEIblTKO+lHDZTEfhLiwTITJFg/uopykfUwL9E9rMfjLpL0tHsoSgniUlInzrGEggJXFC4nDyFpMOBT5YFKJAAogDViGYcbsLmkKQdNcJMgI50hGLyTUxCegpK04kEj0KCnx4mknZy0hbBLcsCFEiA3tKLZBzQIngROFhYKhU8qo+dLzAJ6RA5mRBIGBSmh+lkncAYOOlCEkWFNUmoYRuzVMC0oQ15iWnhKE3ydpiEdOhyQiBhLCHkka+SdeK+0y5pFqBEAjCWvZwxjFAe+mtuRdOO8gty64lJSLeGEgIJY2OoUbCpd+LneWAcxVmAEglgHO3sQz9FNXHGURh7ECFk6SgmId35YzdPQmJwWpRHdqj3Ery/X5IFKJHg5ytQMOMwc87AYUYaXCAwCZlNG67cm+ZJmBDnkeokkHY+Ergj4ixAiYQWnhakABHgogPTwItJyKjK++7d44PCxKC44KxOggVxB5XiLECBhKBQXAZD3iaMoofLFi4IdWVMQmY0dQ/oPAPC5HRCXFFQ37BSiawbWMRZgAIJIT7VbEbbOvmTkA6FQCIlwaGw6GwXkRCplMiCB1i3W4QgsEFhbEJScB5U7eaOCF9ngvSI3J6chCahaORFy0fFfGApoaS5qAIJakqyFlmPR1inzi7RJDBB4bK04Ky+8OBDpnja7nnVSSgJUHzRCLjEMiHQmMo4s1GOScisevqWlmgW+iAIY9KCs2qNEa42IMu9pRF08QGQEPLz8oVA4KesZmnGwXlGH9+pUYsEu3zNudQi9gk2iUx4jHWJvPry5RLDwmRickIoOM8lBs93d3erLks3Spx+CF18UNipUslyApcc0J0KzfyeJ6soyGDHmG6T8PTpS5aFvrFLjGscOz/Z3d13hZ4zVLe1AqvXVI3Ijy4+yEhw5nHHwmA40X7Vds42AP8QwiRkzCS8ffqUZgHC0H61myeAk1qJsVBptrYgJHhreBVb3KKMQyYnF2XKyjEJmaokPHvLszA1dU+mPrWeXiUSKpNVlviMQ0F0ecGsuJ0Nk5CeSsIzIJaFvvalJRkJatsTbMAD+l0igemBX3xQJwFkHBXifi5+4alfYUckJiEtap+fn2dYADC0d7POEZXalqUm+d52uAzl0yLBVCRP68C5mCykGgxptWLowiQYq44ff52fZ2B4+3ZqiHULeiYHuOTgU/i6c3SokgC8gEN654PZwSUNwIXaS+Sdgr01JkyCkQnkwK9ALAvXOq7wzlF7crBQss2ojAVo1CDBqbTKBBLQC/TXvtChdLi8hXUgmASDNL6wsMCz0H6VtgsvX/LlBSi15adKhQ3q9KvO5CQUKm5BgLOCi6tUUj7J/jXSyxUfMQlGzQ0LCzwLU+2sWxCxcJVQTwBcypGiLSkJXvFCFScrRfUzow5vkQmIDIgJ3lsTwD7ByLnhERDLwjXbtflnchbUyko+LpzL3YM3GQkw4yhWeL2e4uqONiu8e02wjaQFrjT2l2MSDJwbHj58xLMwM847R668AFDoU7kXDiYAfqUDNVwWoEICOF6mtMrdU8Yb0JIWutRUD11IeXMNBIPymlaTO5TIReLhTlJcfPPwIc/CAJJFCKWmpSH1vD5SqlZlaFInQTHjoBWAI8j6Qx9Teyrz9DqYB/w9UR96h6zGEuenPje8oVFgWDg7hWQRPAtX1Eq/TtUFAi+7BUmZBAslXnwS1Ize8tKMFqTL/ObVVZYwCaucGxYXF3kWrp9FswieBbWQELTb7dXKhwrBIegZnXa7ReGbb7erLTGFRIeCTS3wxtiI1Sv6TRp5Hk+/EkYej4f7TRoeRbXhAVdT8PnzRZ6FOz0DjxbkLFzJ6C9aIkvctnI8UMbPDb8/51h483BmhnOOPAyQhSF8nXJfM78DPWdgeDNguiNkEUJguIa/kbkv8+jjxwILwXEkixBYmMHXKfd16zEUy8J12yiSRfAsXMM5eO4r/BsQB8Oo7TrjFjgYWBbwL2PMffWMvvhNYGG8Y/H5opgFCMNVfJ1yXzUvgDgWRk3XOeeIsvBjB75OOS/37ZE/X3AwPJ4JClmEUGp6NI6vU+4rtNz1JxDDwgh5i3YLEhbu4Awy92VZXl4eec2xUF3IOUcRC4X4OuW8ym/OLi93vX7NsHCLGBCyCKHseB1fp9xX0ywQjQJkoTn8As0oWRYG8J2Eua/SVkjCbMNrWrfIEc45IiyMauQNtn67XBX8voPtO9arascunT/nFyfUT7L+RAEeyJTVOcuoqw6SELRwzhFhYVTLJLiU9wBwJnNdNIm26qxc7kp2kuihT3LsCnaLdI4g/k0/GOYa5DMHdJ2smgVhtqEOKECOCFkEC4M2CPR/zKAgkx4Sop/r+9Q7k57ks0+ShH13RQIjvpd5tI9tcJF5qudcZANHAggKdXWlFs45CiwMdBDmsIEkfKsP/42YBP0knGMbDOsnoTEejwtBwUeOMHZBYGF0nAz66vIMJOFfuj709igmQT8J7HxAHtBNgulmnBYbFMwuEBdQFt79/N+fu/5aqTMbSMLmWj0f+iAmQU1wuI+yjyEJ/7l79wCJPtNDQlOcEwwKfhLOEAwLdaMjQAM/rbz/6/1Kl5E+IbpHzyx2GJOgl4Qz4M9e+tnRu3d/OKCLBFtrXNBsawkICfYuoBsXbi/PLgOtvFv56f27lXpDSTip49N+Hs0ICflfi97lVFaQMHyAe/4DeKAvJgTiqL4nb8yiAiTcXrm9AmQzlITjOvLIbzNDwh7xu6zPDhJ2g1AAn9TC4KCLBHcMBQGEhPjsrJQFKK+hWWQ0ukb7067NDAk7s5GE3efYPBL8eyBfl2PslIYEIZEQsVBoMAlHNH/SqmhGSKjdnJUk1LJ5JDAMwwV6SGiOxZCg0GqzIHkEykIlYTAJm1IsMBpGwjfRbCThDPQHII/MBxPDxX16SAjFYggLfqIBTSQQhY0mYfMXqRUYDSPhqywlYZjOIy+CFDJfDwltMU5MSGhDpwoEhBuk0SREt6dWYDSKhDXRLCXhIp1HDsOHekhoiMUQFnxESOQaBBbyCMNJOJhagdEoEo5lKwlwXjgKC4zn9JBQHUPVWtocl4otQpPGk3A4tQKjQSTkH89WEqBXPAMf1uohoUFEQkCSSPAstJYSxpMQ3ZZSgdEgEuSRKGtIOAoswjBdVdAmISwCIeZ2ixIJQS4iHSR8k1KB0SASNmQvCeyCw1E9JDQ8QEHoJAKiRIJXDZEWEk6kVGA0hoTajdlLAsEsQu7VQUL1AyCBhEJzK5JHCKon0kPCxoJUCozGkLA/msUk0BsT4IqkJgmdDx4gLDQQ34sSCa7Y5CKC7rSQkHQkq6Ifi4T81Vzgrz8WCfkfbczzdZNAb1YaJrRJCN6/fx9hIWxqFbkGBoROsznQQKaHhGOpFBi1SCDX7Dq186utW2Dw2fK3TSdPb6/S/kzboimSQG7bdWrD2uPwXTdvObzpn6f3VH0wAgWHjpzYcRxMVxuPr91weo02CQVw4emiDhIC92mxLNwgi2MSxeMNrurOWLwtPbNDdEcqBcakJFTtX7dFIW89+Fnyr2r+SaVJbINEx9RmtapdJ5Te9eR2lQ5HJCfejx78x0HxubZKkIP6QMTM//vlF4SFPPKmlIRYQyfcuxBIk0+IRr9MocCoTkL+3zdtVuuy5bskueuhHVFdUtxlQ+5Zp/6uB9foCkDCz7ZNfvn+z979vbS15AEAH+3VHE2qlyzbRC6Ekktil/wwLEEiDWZRbg2rxrWxl6gPJfH6kGJA9PqgL6IvdRXBFytuX4rQh9LC/gUH9r5Ye2t/WQXxglD65Ju+6Ouec/LjTHJm5vyccyy783BbStO5Zj6Zme93vmdi3B7j8Vu+lS1Me75//x9E++23f7eZJiGuI8GIk+CM3ya/qnEA84m+zypsAUSvEZvMgVtCPq/NRsqWRxCoDIPQMP3HW8jCBhdSvkdZeKj0YUgDJHToSDBiJIRs8q9rQsxFTMTLapegZDbpCMpKKL0fXcj3zjAJG1//4FrZwsNbf6oKJMT2HTBPgt2hPcGIlNDVoWgo7WOSPFYfy2qW0NWkrNeInASvsPK3o1kZBYGZ/voVsvAcPKkKJCrtH8BECdinmFpZTRJae5QO5mjVJs417Ga1S6i3KX1hh4ssQXggyBVjqUr4+97eHmThTsvb33+XWnj/MzBVwoj2BCNCwphd+WhOQGX20STLapcQVdFrrJ0soZfbI+DeOKMkPNnbgyw84vePVUGl0Kb/AsyVEFOaYLQrkBBRNZzioKh7Xa2EgKrpJOwnSrgJQDNLV8Kt3dd7kIVfPNNwIFG08P5vt1r+ylCUgNiTtStMMA7KS1A7oDEnriJBjYQxt7rXhl0kCXZnwk1ZwsZrrlUsPGB2qgIJwcKj7/786OEjmnNCWLqgjilMMPbLSgi51Q7oIKNfQkJ1r40OggQ2it/pGLVf3H39WsSwAx6U945igmGanxh+pCnBNywN6JQlGJN1chKCXlZ1G9ctwe9T3+s9kgTCT2GMhJVdrlUsTHt+qQokxHnhYQNNCXZpvsjrUJRg7A7JSHCG1Q8J627VKcER09LrAEECS1vCk91dyMJjfv+ItPCI7o7RJd34DShKMIYCMhJGWC0t7NAnYUhTrzandRLa1t68gSy0tLzeqw4qSxjef09XgrMRN0OTE4x2Z4Qsod6taUyK6W7NEoJ2bb32Widh8w3fyhaegMdVgYRoYdpDV0JXr+SPbihJMA4CmR3jhLYhYZNOPRIaNfbqdVkmYfXdG8gCF0LCgQRk4TGgK8Ev/eHd7QoSjBHQS5RQh3/Tm5rj8fEmH6mWUquEAUKvI/3xIXyv41ZJ+OHDu3eihVWwA8cRsIU7lCUEmaSC45whRNZhnCgBd2gQC5U2pI4oJiNs4yLJcbUS6shTQrjcKxPC7GOTDoskbLwTWtHCmx2wCgcSFQxv3z4AlCW0AunJ76h8gvEGZkdYJzMl9EJpMucwdlRdvc3Fhj6W9jbXtDhDnBLGoXDIOUKocLBAwuqHDx8qGNYafqoKJCALP9KWMACkMYDkQj5pgnEIM4PXEeub3AElZxlNsudeuOo1tBt3Ta6sH53UskbCnQ9CK1l4Dp5XBRKihWkPbQkJySPprPRCvgjqb3QTJLS7sVsA+YI4uMBalQQXOnCQXCo3ivTiUibB7Qv33Qgn+R8wacTi8PEjZOEOH1IiLWwA2hJCqCV9SG7AehjMB7CO9LHrk5yg+JFjF9IoIULIUFRNcV7c8iAjwTsaqS9vONoHxoJGLA4fP4oWnoDNqkBCtLDWRl1CFLU9m5BNMOI+WXWk/SKi2BB5zNetUQJ6v4g4R0GGPaNyEmxjxtXJV9JKnz5+FC28AOtwIAFZeA6oSwig9lk1F/KFkAPegZfQhVwcbjuUlJCyVQXWaiSgF4ckolfk4tUjI2GExp3UO58+iRaeeVbgQAKysNtCX0KEi+e8Mp/ebuRKTjiVDiivgZnALdnqJSAPQtA3ASBnj3aSBHcA0GiLn4RWtLAFFqE4AragdkrQIoFP7kpr/u6TE4wd2HezDr8lQ9/TgYzpEpokdCtdkjBBS4gkIUIFAvPs82fRQkvbGhxIiBjWbpkgoR+506q6kK8VvfTexEuwseRPOlxohj17UC0BfQqJLLypw5w9YCWMUoEAsp/5VrLA7RerAgnRwmNgggT+6MUv/eN60geomI7GS3CpGL4geR1RIcGB3Jz4FFZgFdcRnAR7Ox0JmwcHooUVsA4HEqIFtYGDNglCwBgmRv430KEFXgI61deI/F/uIueWVEhAj2IfslcHJrdUL1fKYnDbPjioWFhnVqoCCdHCDjBDwjj6ELiR9PnplZEQR3+u0F8Tg/qrE1okjOntNYaXEASUtgkHBxULm8L2EWFhlTFFQjN62bS7CPmaehkJw6zOFtYioVlvr0mshBilKSF7fHxctnAw1XYgxhGQhbWfgHkSEA+/hvAJxttARkKH3jHp0SLhvt5evVgJzZQkvDw+rljYBi8/w4FExcIGMFECIjcwjE8wDstJ6NM7Jj4tEhr19mrHSohSkrB4dlaxsAJW4UCigmGVMVVCP/7NDuEyyngJPQaMiXoJYb29sgxOAqVtAlg/OytZOH7GZEv7hWoLz1qAqRKC+J9ekq8p1z7jJbgtkeDVLcGBk+CiA6Ft/vS0bGELLFb2jrCFFWCuBMTHOI5LMJZDPKwEB2uJBDs1CXZKU0Jm6fS0ZOHsB8+zYyiQKFvYBGZL6EZXbqCGIiAnwWWJBIalJsFHSUJqef60ZGEbvDiGAokyhkVguoQorl5kCHtOiZXQZYkEJz0JPZQkFK6Wzk+LFl6A7eNjiYVFxnwJLjdmYyhJMFa+BAIrwW+JhC56Em5TkrB0tTx/LliY90ydnkGBRNGCdgg6JCDG9R46wdj/fwlGteUrblI45y1sgS1hvwBbONjS8U/rkDCETvRF8BHV/87qQEnC1NWVMClwLQvWK5vHEobjF8AaCYi33I9KF4qDgJXgtEQC881ImJothQ4XHIWly8vz81dgpbxhKFtYzwKLJDA+VHGGNMF4T14CY4kEilGk0XPCTEr4ZfLi4oKbFC4vL1+CxfNz2MLZIl/UzmSskICoM+pAJRgT8hL0j4lXiwSfbn+MSRJml2f4IUld8I2bFObbPMVFomxhXcgnOWZmLZEgrT30OvAJRqIE9D2cN5sUt6gWCeiSpQnlvQaAWfuE1GGaG+SCIIGbFLbBC36NKFuY3xSecpldyluyOqDKeBLSBCNUxYWXcNO4YxwVEgaRf3VMVXcmSWDSh7ksmDksTgpPV8A2t0SULMxvCcPFpJaXO62RgPhMNeMTjEQJ6ILWOGUJ6ILW3usoAWQOD3Oz6cND3sLyK2bq6eVl0cL6y+JgZdJXVxlgkQRppUcMn2AkSkDXjAxTloB8nEXR16abLwHMnBymc4dCu8iDl0+5dvn01VYxYJhKcQ6uCsAqCQnEO45NMBIlBGQKkehIiBpQbmSahOwJ14oSDrNg+9WrpaWZ/GQmk5lMFdLCopH2WCbBoeBYt1+RhCD6xe10JfgN6NW8zNLMSdlCWmBxWGmCg4vcLLBMgpKis6AiCQzaVICuBEwYGbmeErL7JyULKZA/OTmBMeiHoFNCXBZC1QSPl4AJHm5SljCof3kwMduc3t8vYphicvv7NRbSU8BKCfInRyMKJWCuwhtQ/xOhhwZ9cQH6UX3ZL8u2SEJqf1+wsAAypd+JFgoNwFIJ8pWAAwolYIrA+tSfsgZVFBFhtidhx7WU0LlfbJOgUPpd2UJuEjBZayXIPafgcyiUAGzyG050S9yvU7INRH9bFeZ6Vvka9UR3yHQJYEEY/lyDJ7e/D1nIpRpAQ8Ha1UH2m56qHxMlScDcoucmf52kIxCrDTYxJ9zoLBXuxjZydpOJ9lXKksyUkD864ga/AH49En5TbLl8A5hK5VIWrw5y3/4WVSwhiDvkIQyKq79Huhtk0HXStupqY6ZeiBX9mKJqNyHl7IzboFJFMySUl8jJI55ABswcHYkW0gvp3MnJDLBYgszDIzWPvZMk4P+lYXTFuDPUZEfGBZhvlWt0QS/tTrJeJzEOvt+F6XXUXlW0aoYERyqV5TVkeQA5pvOo1MQ1It1puYR+ooSah52JEvBXtCb7ay0w9fFBOy5CxF36m+xt7XK1B0NDpZcKOwf8Fa2+XkmvwUiHvbZ82ZTVgcl/mVso5IW5IA8mvxzVWDAAgm4J5KvH4iokMITL9e0d/Qk/NzAul7+1LjJc89WyNiXnSrg9JOGyaPtgpdd6aa8+U/cJmfSXYjvKggX+FxjDTAOwXgKTlH+zlUlAnWIoazUSIqoktGrt1VwJ3ApRtJAGnWUTpaZ/s2iIBOLzxrXJOrIEzQ9M25QkGbFMR78NCcyvhTl+/PMg9eULZCGX7wTXQ0KU8GY1q5Pg9xoigfGpktDu/QYkdKbm7nKNG/1ZsHC3QmFuZtJjVBe6JXS5FSYY5SVg7jhRK0HptQh+BZaviYRJ3sEc/58FMMWTuDuXXiikMkbe+6lbAuHqA8m13nISQJMhEhLqJGi8UMM8CVP/mvvn5Cw/6oW7KZC6mwE0mn4J+C9WkBT/yEpwxYyQAGLqJDj7rrWEbP6/7Z3PTxpBFMfHojB2tyXaWjRBCGSVKlYM1p9LCpHIWoMtNMaoFS/qJiZtGlOMSc9cvHhu/BNIuGg0sU38v7yVRrGtzC6zMrs+0vc9cIHdgTef3fdjHju1qZf31U9kV93/CpOELGeBkYcEEvGIICFqjQQyMwqYBPrHBRSrzqH2CpAEw8YlyWedBDKyIIAEqlkjgQzOwY4TbnSovrsGYhUkCYbOfYncgwQyONo8CcTba40EEnG1AAmBffU6Y9z9DJOEdb4CIycJxOdungSDrmWTsld3DD4JRfX45jb8DSYJg3wFRl4SCE1LTZNAYxZJIDQhQSfhWN2p1Z4nHSMhYIEEg8YlRjcgHwnVYMHavZr17H/ZbZGE6qjW9qvMO01CR6l0u1+E+A1EyAoTBD+xQgJ767SP9yeB0Ch/DhHzsuv0DReiIvUNKPwxypL5vtJ2kLCjHhIblWOS0G+JBHYlx9sECdWJHOOalXDG+MGHUdOqs5RntEjK61yliHD+UYPFWDtIOL4q2knCLJOEvdrbSzwXO7NxaYFhaOYdO2n01bJrDVYEpM6o6fY6MxlD1z+XNvp7i/dDo1Fj/4w6whu6NL30UCrJdpIwziShq/Z225brrtz1V2FCq/uUxvrTyqv6s7k6TSZTTmZGDfJBaetxsvEuSzOJJ/XH9269z5q1TMvJ5WmjUbXltjuj0jf1v8mlrdvgHK5sdQ5kmEmCQsCoO5vIx6YHalf3gEeL5dOvR7gvD19bek3zhH9PrTTgcefHsj6+UTN/jRq2OqotzmHVztMX2KlDisCTryrazOH0AUYVmjnY+j1SbBI2CAqYbHYOL/1sEhbR8tBkb+YQ2GSDcPkCLQ9M3bZmDn2KAQghtPx/5RyGQgYggAwY0TmIqhv0b6Zy27d3/UAh3nVpKAwToEkW5xxuQkN/KKgoSjDkvzTR8wCaHpiK4pyD6dSjc4CuQ3GZgxUS5tHywETLZfkBSHiLloems7K4zMECCdtoeWj6US4+AAnjaHhwqohzDvwk9D9Fw0PThH5KnCehBw0PTif6kfMkoG+A6Bz0ScdJCHag3cEpop8Tp0kI4iIkSOdw4jQJCAJInesRh0lQ+tDqADWpV4ijJPhnKVodoo6EOofGJASfoc1h6qc+4SAJwzlciQYqWa9Qx0gI9iAHYPVdvxB6PsUQg66pApobsE71M6Hno/MrqYO9u81JB1PtuMwAW7Si2xHJf5kfau+Jxzc24rmVxQJWD1pAZyJXn1AtrAuhZSVUC4cJE2gDVFW/ANqjgSCFl5ekAAAAAElFTkSuQmCC;" parent="1" vertex="1">
                    <mxGeometry x="331.83" y="418.64" width="96.34" height="32.73" as="geometry"/>
                </mxCell>
                <mxCell id="24" value="&lt;font style=&quot;font-size: 18px&quot; color=&quot;#0000ff&quot;&gt;Slave&lt;/font&gt;&lt;font color=&quot;#000000&quot; style=&quot;font-size: 18px&quot;&gt;(test.jmx)&lt;/font&gt;" style="text;html=1;resizable=0;autosize=1;align=center;verticalAlign=middle;points=[];fillColor=none;strokeColor=none;rounded=0;" parent="1" vertex="1">
                    <mxGeometry x="314.99999999999994" y="456.37" width="130" height="20" as="geometry"/>
                </mxCell>
                <mxCell id="43" style="edgeStyle=orthogonalEdgeStyle;rounded=0;orthogonalLoop=1;jettySize=auto;html=1;strokeColor=#000000;" parent="1" source="25" target="34" edge="1">
                    <mxGeometry relative="1" as="geometry">
                        <Array as="points">
                            <mxPoint x="530" y="520"/>
                            <mxPoint x="670" y="520"/>
                            <mxPoint x="670" y="330"/>
                            <mxPoint x="456" y="330"/>
                        </Array>
                    </mxGeometry>
                </mxCell>
                <mxCell id="25" value="EC2 instance" style="points=[[0,0],[0.25,0],[0.5,0],[0.75,0],[1,0],[1,0.25],[1,0.5],[1,0.75],[1,1],[0.75,1],[0.5,1],[0.25,1],[0,1],[0,0.75],[0,0.5],[0,0.25]];outlineConnect=0;gradientColor=none;html=1;whiteSpace=wrap;fontSize=12;fontStyle=0;shape=mxgraph.aws4.group;grIcon=mxgraph.aws4.group_ec2_instance_contents;strokeColor=#D86613;fillColor=none;verticalAlign=top;align=left;spacingLeft=30;fontColor=#D86613;dashed=0;" parent="1" vertex="1">
                    <mxGeometry x="460" y="390" width="140" height="90" as="geometry"/>
                </mxCell>
                <mxCell id="26" value="" style="shape=image;verticalLabelPosition=bottom;labelBackgroundColor=#ffffff;verticalAlign=top;aspect=fixed;imageAspect=0;image=data:image/png,iVBORw0KGgoAAAANSUhEUgAAAgkAAACxCAMAAAB5ut77AAAABGdBTUEAALGPC/xhBQAAAAFzUkdCAK7OHOkAAAL3UExURUdwTAAAAAAAAAAAANIhKMcdOQAAAAAAAIIcJgAAAAAAAAAAACgWLwAAANEgLgAAANEiKNIhKA4KENEkK9IhJ9IgKNIqKAAAAAAAAMsfNNIhKNQiLNIhKNIhKMYyO9IhKAAAANMhKAAAANEiKtMhKAAAAAAAAAYGEM8gLNEiKtIhKAAAAAAAAAAAAAAAAAAAAAAAAE1NTdIhKdIhKAAAAEhHTV0/YNIiKQAAAAkJCdIiKHgpgAAAAE1NTQAAAAAAANAiLNM1MgAAAAAAAE1NTc8nLgAAAAAAAAAAANEhKtAlLAAAAAAAAAAAAIIneQAAANIiKgAAAAAAAIUmdwAAAMohN9EhKdIhKIImeQAAAAAAAAAAANIhKdIiKtIgKMshNk1NTZElbIQmdwAAAM0hMHspfismZOx6JuZtJ4AnesohN9EvM4wjcoIneex+JeZjJsMgPdIhKIUmd4ErdG0rhXkpf+l2JtIhKNtUMKYgXHsoffaXI+l2J+t8Jk1NTa8fUk1NTZUia40kcdY6MW0siNpJLvaYI8UhPK8fU2sshrcgSrogRt5WLK0fVEdEVPGNI70gRPaWI9IiKvWUI+ZuKLIgTrwgRKsgVkhHUKggWW8rhqMfX/WVI/WVI/KMJOh0JrAfUd9WK7wgRehyJ+RnKb4gQ91TLc0kNU1NTa0gVVQrgagfWqIgXy8nZ+FgKswhNdhDL84tOSsmZC8nZ99ZKzYnbSomY754fL5/fCglYUwqeygnYsNwbgAAANIhKE1NTcogNswhNs0iNfaZI+l4JveaI7wgRb4gQ8AgQbogR8YgOsQgPIInebggScggOLYgS7QgTbIgT64gU7AgUYcmdX8oe99XK+BbK6wgVeRmKYUmd8IgPtpILuFfKqkgWfSRJOJjKnwofdlEL8EgP91SLeh1JttMLuZvJ+VqKKogV9xPLddBL+dyJ/KOJPWVI9U6MacgW4olc9Y+MN5ULOZsKM8mNKUgXY0kcctDSmotisB0dLKnqMRhYzWlyX0AAAC9dFJOUwBJMcxbCr3eAqqI9wXCGTRO1Qo37WcVD/wQ3h758wbN4NrwVbjrIBokRONcKU7YsWiodqRWMBKO0RSG/m7kmkOa/uN7eiuQyuaySXQ8tm2Ab5Wgz4vJYv1CpWKEezDG9Lcv6Mc9WfxDIISv0BmZww3m6ashTejXvsbxve8tbPialMPy0PTu4oRDocjzedhh0Han5r+VcKyAS7Ww/tRTg+zqXV+w3pKU1s1V923O2/Pfsvx3oN8+vf7EjJGsfyRyt/0AAB1iSURBVHja7J1bTFPZGsf3KNVtxE7LpSOl0IPFofR4pWqHxktR69jOMcMYoTmRi8khgUACIScBEuSEhMC8EA3Cgw+oIRqdp1ETk5mH021L5cVJfNSQI3EygdF4GZNREqLzcNba17Vv3RvrbtO6/onadq+1S/f69Vv/71trI0F8PF2aHHwyOdRDYH3a6pmYS/zxx5Mn0+34WnzSOjs2N5egUXh1SU/7RqezRvZivxNVi7feLGtSDtrYVM5ZWh+qKKMiRc6Ay4S87LJaQwqtg1arlT1TtVVJITyqH6D2wTkghgQ9KJAVFFVkkr5aREkUCZRImuSBV2sUT1lYGRE6FvmFjsUUVaHUHjRjSbNQSqrAw/oBFoEGgSEBoHBWs0MYXuo8TRIoyhMUN2kBr9lJ+QlLvGyHMvbf3jAmIQMgJOYYEhIMCedJrR4heKlbFEiod/NqboTDXiRCoZkeI4s81NthBAk1usE7m8O+XtiqfjUklJXKZMYDu+qpgQWBMwqvXg1p9HBHKDsY5kI5CeI4keegKCs6iQQoCnz5K6Xna4bRpNLNPzfVw9BQvBoS8DB+DI+Q4FFgSTiv0cUHJnsw43u1SCDCYO73I3NAGXAXwGK4JVYRxABHsSgQuUErRyEmIa1ZAwBBRAJEIblTKO+lHDZTEfhLiwTITJFg/uopykfUwL9E9rMfjLpL0tHsoSgniUlInzrGEggJXFC4nDyFpMOBT5YFKJAAogDViGYcbsLmkKQdNcJMgI50hGLyTUxCegpK04kEj0KCnx4mknZy0hbBLcsCFEiA3tKLZBzQIngROFhYKhU8qo+dLzAJ6RA5mRBIGBSmh+lkncAYOOlCEkWFNUmoYRuzVMC0oQ15iWnhKE3ydpiEdOhyQiBhLCHkka+SdeK+0y5pFqBEAjCWvZwxjFAe+mtuRdOO8gty64lJSLeGEgIJY2OoUbCpd+LneWAcxVmAEglgHO3sQz9FNXHGURh7ECFk6SgmId35YzdPQmJwWpRHdqj3Ery/X5IFKJHg5ytQMOMwc87AYUYaXCAwCZlNG67cm+ZJmBDnkeokkHY+Ergj4ixAiYQWnhakABHgogPTwItJyKjK++7d44PCxKC44KxOggVxB5XiLECBhKBQXAZD3iaMoofLFi4IdWVMQmY0dQ/oPAPC5HRCXFFQ37BSiawbWMRZgAIJIT7VbEbbOvmTkA6FQCIlwaGw6GwXkRCplMiCB1i3W4QgsEFhbEJScB5U7eaOCF9ngvSI3J6chCahaORFy0fFfGApoaS5qAIJakqyFlmPR1inzi7RJDBB4bK04Ky+8OBDpnja7nnVSSgJUHzRCLjEMiHQmMo4s1GOScisevqWlmgW+iAIY9KCs2qNEa42IMu9pRF08QGQEPLz8oVA4KesZmnGwXlGH9+pUYsEu3zNudQi9gk2iUx4jHWJvPry5RLDwmRickIoOM8lBs93d3erLks3Spx+CF18UNipUslyApcc0J0KzfyeJ6soyGDHmG6T8PTpS5aFvrFLjGscOz/Z3d13hZ4zVLe1AqvXVI3Ijy4+yEhw5nHHwmA40X7Vds42AP8QwiRkzCS8ffqUZgHC0H61myeAk1qJsVBptrYgJHhreBVb3KKMQyYnF2XKyjEJmaokPHvLszA1dU+mPrWeXiUSKpNVlviMQ0F0ecGsuJ0Nk5CeSsIzIJaFvvalJRkJatsTbMAD+l0igemBX3xQJwFkHBXifi5+4alfYUckJiEtap+fn2dYADC0d7POEZXalqUm+d52uAzl0yLBVCRP68C5mCykGgxptWLowiQYq44ff52fZ2B4+3ZqiHULeiYHuOTgU/i6c3SokgC8gEN654PZwSUNwIXaS+Sdgr01JkyCkQnkwK9ALAvXOq7wzlF7crBQss2ojAVo1CDBqbTKBBLQC/TXvtChdLi8hXUgmASDNL6wsMCz0H6VtgsvX/LlBSi15adKhQ3q9KvO5CQUKm5BgLOCi6tUUj7J/jXSyxUfMQlGzQ0LCzwLU+2sWxCxcJVQTwBcypGiLSkJXvFCFScrRfUzow5vkQmIDIgJ3lsTwD7ByLnhERDLwjXbtflnchbUyko+LpzL3YM3GQkw4yhWeL2e4uqONiu8e02wjaQFrjT2l2MSDJwbHj58xLMwM847R668AFDoU7kXDiYAfqUDNVwWoEICOF6mtMrdU8Yb0JIWutRUD11IeXMNBIPymlaTO5TIReLhTlJcfPPwIc/CAJJFCKWmpSH1vD5SqlZlaFInQTHjoBWAI8j6Qx9Teyrz9DqYB/w9UR96h6zGEuenPje8oVFgWDg7hWQRPAtX1Eq/TtUFAi+7BUmZBAslXnwS1Ize8tKMFqTL/ObVVZYwCaucGxYXF3kWrp9FswieBbWQELTb7dXKhwrBIegZnXa7ReGbb7erLTGFRIeCTS3wxtiI1Sv6TRp5Hk+/EkYej4f7TRoeRbXhAVdT8PnzRZ6FOz0DjxbkLFzJ6C9aIkvctnI8UMbPDb8/51h483BmhnOOPAyQhSF8nXJfM78DPWdgeDNguiNkEUJguIa/kbkv8+jjxwILwXEkixBYmMHXKfd16zEUy8J12yiSRfAsXMM5eO4r/BsQB8Oo7TrjFjgYWBbwL2PMffWMvvhNYGG8Y/H5opgFCMNVfJ1yXzUvgDgWRk3XOeeIsvBjB75OOS/37ZE/X3AwPJ4JClmEUGp6NI6vU+4rtNz1JxDDwgh5i3YLEhbu4Awy92VZXl4eec2xUF3IOUcRC4X4OuW8ym/OLi93vX7NsHCLGBCyCKHseB1fp9xX0ywQjQJkoTn8As0oWRYG8J2Eua/SVkjCbMNrWrfIEc45IiyMauQNtn67XBX8voPtO9arascunT/nFyfUT7L+RAEeyJTVOcuoqw6SELRwzhFhYVTLJLiU9wBwJnNdNIm26qxc7kp2kuihT3LsCnaLdI4g/k0/GOYa5DMHdJ2smgVhtqEOKECOCFkEC4M2CPR/zKAgkx4Sop/r+9Q7k57ks0+ShH13RQIjvpd5tI9tcJF5qudcZANHAggKdXWlFs45CiwMdBDmsIEkfKsP/42YBP0knGMbDOsnoTEejwtBwUeOMHZBYGF0nAz66vIMJOFfuj709igmQT8J7HxAHtBNgulmnBYbFMwuEBdQFt79/N+fu/5aqTMbSMLmWj0f+iAmQU1wuI+yjyEJ/7l79wCJPtNDQlOcEwwKfhLOEAwLdaMjQAM/rbz/6/1Kl5E+IbpHzyx2GJOgl4Qz4M9e+tnRu3d/OKCLBFtrXNBsawkICfYuoBsXbi/PLgOtvFv56f27lXpDSTip49N+Hs0ICflfi97lVFaQMHyAe/4DeKAvJgTiqL4nb8yiAiTcXrm9AmQzlITjOvLIbzNDwh7xu6zPDhJ2g1AAn9TC4KCLBHcMBQGEhPjsrJQFKK+hWWQ0ukb7067NDAk7s5GE3efYPBL8eyBfl2PslIYEIZEQsVBoMAlHNH/SqmhGSKjdnJUk1LJ5JDAMwwV6SGiOxZCg0GqzIHkEykIlYTAJm1IsMBpGwjfRbCThDPQHII/MBxPDxX16SAjFYggLfqIBTSQQhY0mYfMXqRUYDSPhqywlYZjOIy+CFDJfDwltMU5MSGhDpwoEhBuk0SREt6dWYDSKhDXRLCXhIp1HDsOHekhoiMUQFnxESOQaBBbyCMNJOJhagdEoEo5lKwlwXjgKC4zn9JBQHUPVWtocl4otQpPGk3A4tQKjQSTkH89WEqBXPAMf1uohoUFEQkCSSPAstJYSxpMQ3ZZSgdEgEuSRKGtIOAoswjBdVdAmISwCIeZ2ixIJQS4iHSR8k1KB0SASNmQvCeyCw1E9JDQ8QEHoJAKiRIJXDZEWEk6kVGA0hoTajdlLAsEsQu7VQUL1AyCBhEJzK5JHCKon0kPCxoJUCozGkLA/msUk0BsT4IqkJgmdDx4gLDQQ34sSCa7Y5CKC7rSQkHQkq6Ifi4T81Vzgrz8WCfkfbczzdZNAb1YaJrRJCN6/fx9hIWxqFbkGBoROsznQQKaHhGOpFBi1SCDX7Dq186utW2Dw2fK3TSdPb6/S/kzboimSQG7bdWrD2uPwXTdvObzpn6f3VH0wAgWHjpzYcRxMVxuPr91weo02CQVw4emiDhIC92mxLNwgi2MSxeMNrurOWLwtPbNDdEcqBcakJFTtX7dFIW89+Fnyr2r+SaVJbINEx9RmtapdJ5Te9eR2lQ5HJCfejx78x0HxubZKkIP6QMTM//vlF4SFPPKmlIRYQyfcuxBIk0+IRr9MocCoTkL+3zdtVuuy5bskueuhHVFdUtxlQ+5Zp/6uB9foCkDCz7ZNfvn+z979vbS15AEAH+3VHE2qlyzbRC6Ekktil/wwLEEiDWZRbg2rxrWxl6gPJfH6kGJA9PqgL6IvdRXBFytuX4rQh9LC/gUH9r5Ye2t/WQXxglD65Ju+6Ouec/LjTHJm5vyccyy783BbStO5Zj6Zme93vmdi3B7j8Vu+lS1Me75//x9E++23f7eZJiGuI8GIk+CM3ya/qnEA84m+zypsAUSvEZvMgVtCPq/NRsqWRxCoDIPQMP3HW8jCBhdSvkdZeKj0YUgDJHToSDBiJIRs8q9rQsxFTMTLapegZDbpCMpKKL0fXcj3zjAJG1//4FrZwsNbf6oKJMT2HTBPgt2hPcGIlNDVoWgo7WOSPFYfy2qW0NWkrNeInASvsPK3o1kZBYGZ/voVsvAcPKkKJCrtH8BECdinmFpZTRJae5QO5mjVJs417Ga1S6i3KX1hh4ssQXggyBVjqUr4+97eHmThTsvb33+XWnj/MzBVwoj2BCNCwphd+WhOQGX20STLapcQVdFrrJ0soZfbI+DeOKMkPNnbgyw84vePVUGl0Kb/AsyVEFOaYLQrkBBRNZzioKh7Xa2EgKrpJOwnSrgJQDNLV8Kt3dd7kIVfPNNwIFG08P5vt1r+ylCUgNiTtStMMA7KS1A7oDEnriJBjYQxt7rXhl0kCXZnwk1ZwsZrrlUsPGB2qgIJwcKj7/786OEjmnNCWLqgjilMMPbLSgi51Q7oIKNfQkJ1r40OggQ2it/pGLVf3H39WsSwAx6U945igmGanxh+pCnBNywN6JQlGJN1chKCXlZ1G9ctwe9T3+s9kgTCT2GMhJVdrlUsTHt+qQokxHnhYQNNCXZpvsjrUJRg7A7JSHCG1Q8J627VKcER09LrAEECS1vCk91dyMJjfv+ItPCI7o7RJd34DShKMIYCMhJGWC0t7NAnYUhTrzandRLa1t68gSy0tLzeqw4qSxjef09XgrMRN0OTE4x2Z4Qsod6taUyK6W7NEoJ2bb32Widh8w3fyhaegMdVgYRoYdpDV0JXr+SPbihJMA4CmR3jhLYhYZNOPRIaNfbqdVkmYfXdG8gCF0LCgQRk4TGgK8Ev/eHd7QoSjBHQS5RQh3/Tm5rj8fEmH6mWUquEAUKvI/3xIXyv41ZJ+OHDu3eihVWwA8cRsIU7lCUEmaSC45whRNZhnCgBd2gQC5U2pI4oJiNs4yLJcbUS6shTQrjcKxPC7GOTDoskbLwTWtHCmx2wCgcSFQxv3z4AlCW0AunJ76h8gvEGZkdYJzMl9EJpMucwdlRdvc3Fhj6W9jbXtDhDnBLGoXDIOUKocLBAwuqHDx8qGNYafqoKJCALP9KWMACkMYDkQj5pgnEIM4PXEeub3AElZxlNsudeuOo1tBt3Ta6sH53UskbCnQ9CK1l4Dp5XBRKihWkPbQkJySPprPRCvgjqb3QTJLS7sVsA+YI4uMBalQQXOnCQXCo3ivTiUibB7Qv33Qgn+R8wacTi8PEjZOEOH1IiLWwA2hJCqCV9SG7AehjMB7CO9LHrk5yg+JFjF9IoIULIUFRNcV7c8iAjwTsaqS9vONoHxoJGLA4fP4oWnoDNqkBCtLDWRl1CFLU9m5BNMOI+WXWk/SKi2BB5zNetUQJ6v4g4R0GGPaNyEmxjxtXJV9JKnz5+FC28AOtwIAFZeA6oSwig9lk1F/KFkAPegZfQhVwcbjuUlJCyVQXWaiSgF4ckolfk4tUjI2GExp3UO58+iRaeeVbgQAKysNtCX0KEi+e8Mp/ebuRKTjiVDiivgZnALdnqJSAPQtA3ASBnj3aSBHcA0GiLn4RWtLAFFqE4AragdkrQIoFP7kpr/u6TE4wd2HezDr8lQ9/TgYzpEpokdCtdkjBBS4gkIUIFAvPs82fRQkvbGhxIiBjWbpkgoR+506q6kK8VvfTexEuwseRPOlxohj17UC0BfQqJLLypw5w9YCWMUoEAsp/5VrLA7RerAgnRwmNgggT+6MUv/eN60geomI7GS3CpGL4geR1RIcGB3Jz4FFZgFdcRnAR7Ox0JmwcHooUVsA4HEqIFtYGDNglCwBgmRv430KEFXgI61deI/F/uIueWVEhAj2IfslcHJrdUL1fKYnDbPjioWFhnVqoCCdHCDjBDwjj6ELiR9PnplZEQR3+u0F8Tg/qrE1okjOntNYaXEASUtgkHBxULm8L2EWFhlTFFQjN62bS7CPmaehkJw6zOFtYioVlvr0mshBilKSF7fHxctnAw1XYgxhGQhbWfgHkSEA+/hvAJxttARkKH3jHp0SLhvt5evVgJzZQkvDw+rljYBi8/w4FExcIGMFECIjcwjE8wDstJ6NM7Jj4tEhr19mrHSohSkrB4dlaxsAJW4UCigmGVMVVCP/7NDuEyyngJPQaMiXoJYb29sgxOAqVtAlg/OytZOH7GZEv7hWoLz1qAqRKC+J9ekq8p1z7jJbgtkeDVLcGBk+CiA6Ft/vS0bGELLFb2jrCFFWCuBMTHOI5LMJZDPKwEB2uJBDs1CXZKU0Jm6fS0ZOHsB8+zYyiQKFvYBGZL6EZXbqCGIiAnwWWJBIalJsFHSUJqef60ZGEbvDiGAokyhkVguoQorl5kCHtOiZXQZYkEJz0JPZQkFK6Wzk+LFl6A7eNjiYVFxnwJLjdmYyhJMFa+BAIrwW+JhC56Em5TkrB0tTx/LliY90ydnkGBRNGCdgg6JCDG9R46wdj/fwlGteUrblI45y1sgS1hvwBbONjS8U/rkDCETvRF8BHV/87qQEnC1NWVMClwLQvWK5vHEobjF8AaCYi33I9KF4qDgJXgtEQC881ImJothQ4XHIWly8vz81dgpbxhKFtYzwKLJDA+VHGGNMF4T14CY4kEilGk0XPCTEr4ZfLi4oKbFC4vL1+CxfNz2MLZIl/UzmSskICoM+pAJRgT8hL0j4lXiwSfbn+MSRJml2f4IUld8I2bFObbPMVFomxhXcgnOWZmLZEgrT30OvAJRqIE9D2cN5sUt6gWCeiSpQnlvQaAWfuE1GGaG+SCIIGbFLbBC36NKFuY3xSecpldyluyOqDKeBLSBCNUxYWXcNO4YxwVEgaRf3VMVXcmSWDSh7ksmDksTgpPV8A2t0SULMxvCcPFpJaXO62RgPhMNeMTjEQJ6ILWOGUJ6ILW3usoAWQOD3Oz6cND3sLyK2bq6eVl0cL6y+JgZdJXVxlgkQRppUcMn2AkSkDXjAxTloB8nEXR16abLwHMnBymc4dCu8iDl0+5dvn01VYxYJhKcQ6uCsAqCQnEO45NMBIlBGQKkehIiBpQbmSahOwJ14oSDrNg+9WrpaWZ/GQmk5lMFdLCopH2WCbBoeBYt1+RhCD6xe10JfgN6NW8zNLMSdlCWmBxWGmCg4vcLLBMgpKis6AiCQzaVICuBEwYGbmeErL7JyULKZA/OTmBMeiHoFNCXBZC1QSPl4AJHm5SljCof3kwMduc3t8vYphicvv7NRbSU8BKCfInRyMKJWCuwhtQ/xOhhwZ9cQH6UX3ZL8u2SEJqf1+wsAAypd+JFgoNwFIJ8pWAAwolYIrA+tSfsgZVFBFhtidhx7WU0LlfbJOgUPpd2UJuEjBZayXIPafgcyiUAGzyG050S9yvU7INRH9bFeZ6Vvka9UR3yHQJYEEY/lyDJ7e/D1nIpRpAQ8Ha1UH2m56qHxMlScDcoucmf52kIxCrDTYxJ9zoLBXuxjZydpOJ9lXKksyUkD864ga/AH49En5TbLl8A5hK5VIWrw5y3/4WVSwhiDvkIQyKq79Huhtk0HXStupqY6ZeiBX9mKJqNyHl7IzboFJFMySUl8jJI55ABswcHYkW0gvp3MnJDLBYgszDIzWPvZMk4P+lYXTFuDPUZEfGBZhvlWt0QS/tTrJeJzEOvt+F6XXUXlW0aoYERyqV5TVkeQA5pvOo1MQ1It1puYR+ooSah52JEvBXtCb7ay0w9fFBOy5CxF36m+xt7XK1B0NDpZcKOwf8Fa2+XkmvwUiHvbZ82ZTVgcl/mVso5IW5IA8mvxzVWDAAgm4J5KvH4iokMITL9e0d/Qk/NzAul7+1LjJc89WyNiXnSrg9JOGyaPtgpdd6aa8+U/cJmfSXYjvKggX+FxjDTAOwXgKTlH+zlUlAnWIoazUSIqoktGrt1VwJ3ApRtJAGnWUTpaZ/s2iIBOLzxrXJOrIEzQ9M25QkGbFMR78NCcyvhTl+/PMg9eULZCGX7wTXQ0KU8GY1q5Pg9xoigfGpktDu/QYkdKbm7nKNG/1ZsHC3QmFuZtJjVBe6JXS5FSYY5SVg7jhRK0HptQh+BZaviYRJ3sEc/58FMMWTuDuXXiikMkbe+6lbAuHqA8m13nISQJMhEhLqJGi8UMM8CVP/mvvn5Cw/6oW7KZC6mwE0mn4J+C9WkBT/yEpwxYyQAGLqJDj7rrWEbP6/7Z3PTxpBFMfHojB2tyXaWjRBCGSVKlYM1p9LCpHIWoMtNMaoFS/qJiZtGlOMSc9cvHhu/BNIuGg0sU38v7yVRrGtzC6zMrs+0vc9cIHdgTef3fdjHju1qZf31U9kV93/CpOELGeBkYcEEvGIICFqjQQyMwqYBPrHBRSrzqH2CpAEw8YlyWedBDKyIIAEqlkjgQzOwY4TbnSovrsGYhUkCYbOfYncgwQyONo8CcTba40EEnG1AAmBffU6Y9z9DJOEdb4CIycJxOdungSDrmWTsld3DD4JRfX45jb8DSYJg3wFRl4SCE1LTZNAYxZJIDQhQSfhWN2p1Z4nHSMhYIEEg8YlRjcgHwnVYMHavZr17H/ZbZGE6qjW9qvMO01CR6l0u1+E+A1EyAoTBD+xQgJ767SP9yeB0Ch/DhHzsuv0DReiIvUNKPwxypL5vtJ2kLCjHhIblWOS0G+JBHYlx9sECdWJHOOalXDG+MGHUdOqs5RntEjK61yliHD+UYPFWDtIOL4q2knCLJOEvdrbSzwXO7NxaYFhaOYdO2n01bJrDVYEpM6o6fY6MxlD1z+XNvp7i/dDo1Fj/4w6whu6NL30UCrJdpIwziShq/Z225brrtz1V2FCq/uUxvrTyqv6s7k6TSZTTmZGDfJBaetxsvEuSzOJJ/XH9269z5q1TMvJ5WmjUbXltjuj0jf1v8mlrdvgHK5sdQ5kmEmCQsCoO5vIx6YHalf3gEeL5dOvR7gvD19bek3zhH9PrTTgcefHsj6+UTN/jRq2OqotzmHVztMX2KlDisCTryrazOH0AUYVmjnY+j1SbBI2CAqYbHYOL/1sEhbR8tBkb+YQ2GSDcPkCLQ9M3bZmDn2KAQghtPx/5RyGQgYggAwY0TmIqhv0b6Zy27d3/UAh3nVpKAwToEkW5xxuQkN/KKgoSjDkvzTR8wCaHpiK4pyD6dSjc4CuQ3GZgxUS5tHywETLZfkBSHiLloems7K4zMECCdtoeWj6US4+AAnjaHhwqohzDvwk9D9Fw0PThH5KnCehBw0PTif6kfMkoG+A6Bz0ScdJCHag3cEpop8Tp0kI4iIkSOdw4jQJCAJInesRh0lQ+tDqADWpV4ijJPhnKVodoo6EOofGJASfoc1h6qc+4SAJwzlciQYqWa9Qx0gI9iAHYPVdvxB6PsUQg66pApobsE71M6Hno/MrqYO9u81JB1PtuMwAW7Si2xHJf5kfau+Jxzc24rmVxQJWD1pAZyJXn1AtrAuhZSVUC4cJE2gDVFW/ANqjgSCFl5ekAAAAAElFTkSuQmCC;" parent="1" vertex="1">
                    <mxGeometry x="481.83" y="418.64" width="96.34" height="32.73" as="geometry"/>
                </mxCell>
                <mxCell id="27" value="&lt;font style=&quot;font-size: 18px&quot; color=&quot;#0000ff&quot;&gt;Slave&lt;/font&gt;&lt;font color=&quot;#000000&quot; style=&quot;font-size: 18px&quot;&gt;(test.jmx)&lt;/font&gt;" style="text;html=1;resizable=0;autosize=1;align=center;verticalAlign=middle;points=[];fillColor=none;strokeColor=none;rounded=0;" parent="1" vertex="1">
                    <mxGeometry x="464.99999999999994" y="456.37" width="130" height="20" as="geometry"/>
                </mxCell>
                <mxCell id="34" value="" style="shape=image;verticalLabelPosition=bottom;labelBackgroundColor=#ffffff;verticalAlign=top;aspect=fixed;imageAspect=0;image=data:image/png,iVBORw0KGgoAAAANSUhEUgAAAgAAAAENCAMAAABO0C2LAAAAA3NCSVQICAjb4U/gAAAALVBMVEVHcExssz1tsz5ssz5rsjxrsz1qsTtpsThnsDdjrTFhri9psjljrTNtsz9vtkB+OSWPAAAADXRSTlMA2fXnr8WZcFtDMYQaOJiyyAAAHUdJREFUeJztXYmS4yAObd83//+5Y3yiAxB2Ool79La2trYn2BgeQkhC+vlRKBQKhUKhUCgUCoVCoVAoFAqFQqFQKBQKhUKhUCgUCoVCoVAoFAqFQqFQKBQKhUKhUBA0ZVV3n+6E4kMY69xYZO2ne6L4BLpqWmGm4dN9UbwfYzkdyJtP90bxdjT5SYCp+nRvFG9HaRwC5LoJ/HcoJhflp7ujeDeMEuD/Rq4E+L9RAR2g/nR3FO/G4BDAFGoL+u/QZScDct0B/kMM+c4Ak326L4pPoM0m6wrQ9f//os6KoqjUDvwfYxw/3QOFQqFQKBQKhUKhUCgUiotoh/JlGL7KRdZ3bdP1n+7FNYxd07Zz931Wp/4139UN5Rro/jLk5XD72sTYNnWZFWbxumZlPXjHoauzyeTVgEeja+rq+LCiqv0DuY5ClU9TBTvezwvDxoBltUtq+8KpKBvwuLEpsymvasT++Ql1lS1RJFllPyLy2Wzn7de16PP6prIOifsG6bbMDAxzegGMycpbcmAe+MXlsj/ODsLMgoahfLP2fx4L8MZmecDSenvElJWEJOcLq/UpJjtHtFvnYPlzcYR+jMPywvm/pcOA0S6i5YdunOg8i4XZP2P7CMGM9YOdlPV5Zlo7gLjVlfn2ceUtq3RXFq+f/vVri/KyFOjKLKfdmv9SVIRXbXF6Z88XNtx3LaPIv3E8vPxnkEed5ecjzBEA7LiDq3Psj2Dh84fz2iom3Akri2IUmHlH2tmvz+qDv311/MLccUo2GX3TqzB3+KJ4qovc06uFA/CpTnzGORQ1HfntJznfKSfYe/PyjxXshCnWX7oBIWdIYOO+ItaJIjhlbeX9+vwQcoPz5xvXU4acf9OrcC1s3jsA6yhMYA7BPY1p/Vtf+RovnWKGv3OfYuwotwVuZ9bBByFh2b4kC/evZeQz5qXh//qSvNhpeIgXl4XXr6fUv7b6jx6nB012RbxX5vxkMNdmGZ4+SCA7bUQ9qQEBKlfOn3/e5pULCgUEmqysGLMgi3OPhtRVkb6vvRjh91zca39//i8woBXMv7tRg3FeRqeJzD/YpjeU4J+zn4HpxcY6OLGbNIFyKB+jn2EKVm43QdosDadqljod+OqLoal15FUvQhoD2ugIbNhlACRAxq5dAnKvF+4ZWcf1IoEAfZdFu8BdLo9z1z59ZgAgwMSTKQbRy+7DQ3UPxogEdB7LbYYzAZrAFuoABfTDjSQruSbbFhAngMm7oBKyNyVHUk7ucH0vRyQBrhCglw71bVQJ5qoh/rgdJUOA+V3RpbcB7gJwwnJWN96UQIkEqCTKNdmHhNy1Lcf7EuC3DwAH6IYbAJZKuyWMeS5HAM/aZQFGTbBi92OggAAy4KDy8NkFdqWG//cCAdhd7neQoKQOqFN5UQ5ta42iZIBzVgIkWDVM5XRLMvbNiwkwGThvZULf4f+9QoB3nACO7or1QLgH5s4uOQ4VtA6xB2Lw1ryo6qFdbPEFMz/GtaBFCGDtT7scSyKAyfNiRs5Y9k6ZsoLd/ew3tH3fW8+A3zp2gQD9uzaA9TOEWkALT9Pos8Yhc0xr7CnghCkyx1dj6cP86NTDQwQw8zRkp1lbToCZNVnZtF1npy/jps85CPT0Q6wLyLHz9zX7jOmSBEgQNy+A1FoND6bMVw27hf88RLEEsEOHmjZ0jp1N2E8A60KqW2cexAQwhev36Wpmhp1xYURyhr+hq1k18YIEaN8qAPx2LwRXgzO8fbOti8XdfDyQPbHnNZU5fU3XzzFwPgIYU+HoBikBDHY6dHTVOXsAfQCXiLBlz27pBBDrmy+CZzYx3COc8X1U1wyNsyIZAvgsYw0+Zp8iwDMg89oivlYZAWYNg3IQM8DpKBYAxvBnp5GRFOkSoH6vAJikiRSAR0Vo3mQEa+H7LbHPHn40DwE43goJwFIeH1LPYSEz4j07MwbcVAK88Qi4Q3YUdObHeCUAAvkWk/tfRYwf+zSxBOBv/4oI4PleZCE2xxtIxwILhpg6kiWA3FjyQkj0QCABhD5OQoCg3amEA22KbZ44AniklogAvk5g2esjYBWI8qF25kQCyPxtL4bIYwU7JjMgYgKYYITUiCzF+yQzBPBZLyQEMD7z94jU+E0J6eCfI4OFdZlUCfARASASAXB2ChEDsCUwksG55XvFnBF9/ZUQwK/ywME32cpWvANExgr3No0AeAjeBDPFRQD+MMm2gSVArA08R+1LlRDAFD7jlYAAx85CASNH9ogi9Prc13p/CBYYSQR4vwa4dTOeUAcruPa8Hwt5RZ9TxH4/ot+vY0clgHdMJRIgoL+AudsIgJzgcdM5EuJJBGg+NP+Bk/0BYp+yodeRayaIAHGhgRqsg00I4NfCJAQIzCCY640AOAomajlHciSJAHcEgMcxK20dFwGcVWcxxUqbCAJka261YQIEjhKSeICA9lIyBBjQfEa/AanLKQS4oQGaoqqqW5dIosuTFU82DLhibLsrYDyAYOwa+PAt0hO9MvMvQgkBAoStGQLArU/iOYE0SiAADXaWwuSLX7IdboiQ+FHQ59uzflF+WZGYwLQh2LRArIUF5kAUE+hvPsQJIJjO5qoEuOwEOF0bjE9Dijxq3GkDsfRzc0a5plHBEXSIMh0zLiGm3iRAwxAAjqjECN5flADDZQGQJYbPsDDxo30wUs2YjFzug9MpuXdXxQkQEiS/TwCJ1Rx0V0yA64GgQK25bkr0WshOME5b9wGEAu58GJEHCQ73utgRAUKC5NcJEPBlnABRyGICXPcCwiVxXZMUBIjWYXrhC9FQAkguyqLhZggQPEu8ngAjdzSMIBg75QMTdSQFPNheCoEUf10Tk1PA0AolgGQYogQI+RN/gwB4U0olgFgCXA8ERUuiv6xKiAJE+zp8Zd24yiSUABLpKZAAIUHy21uA3wjt4pIEuL5u0cG2u06AqJ17QR/bB04GJOsAY1wHCB4mv0MJvCIBxLeumOUXIYCZxAH50gDRNuNjqfFToAQQOBAFp4DfJABnB0gnALgdLJQA0o07L7KMZDYIEsDMTapMKBWMOJ1BV2YFkydkw76VQAIIokiQHaCiBAibk35DAsAREgxQe8EOILw0Vw3d2Dc4SwEkANQBTGFjdMemFN42TUhn0C7x9Kx9eLfVJJuCocdpy/Ly2S0AWQIFahJU50QEEB0Bz3jqBvIlIAFOG6H0cmvShfGuZvMFea6GCa6gQCsq5wt4uwSoESfjo1IlS4D4hfUJimdoMg8QwFEQhZf7UxNadE1NfVB72CUiQFwJQBsu5w18NwHQtWCBngxXs4QAEtsNDKcC2oqfAFBgiRTNC7V2xpbYn7e5hvMhWD1oc1uf8lkJgAw0cSUA7RkCApA7ERzQynS/ya8DoBOiiGiXUpp01cQJbxwRFBuLFj5k4/xnTwEkTi02FkXiR8vuAmJfm/ulXgmAA+D7UqBrXMxsh7ZKlgBRFRNLDCYo7+0SAEerx8InkT4nkACSu4DE1yojAHbv9BIZILwriAHGaXszJkDE4YgvYbNRwW8nAM4NEmYx0efiBIgrZ0w4tYwARJxLGHCx4iKw4WwneHIvgAsaOIDuBRz+6Q9LAHxGDx+U8ADHJUAzxcD5P2Q6ABM+K9EEryW3hNeHWQKE05KhsTsm4MMSgMxp6HYDDZmIEiBupGPMc9JTACOuBBona7Hpm6YJxoG7m59nCwjag4kxZFdGPi0BOtSxgByj0RhRCSCQyXTVQLUhZAqm4+0P7DrHiOqBixPQ0LQIDtzjz3YHjNvdfONBgk0OuffhUwCVmt7QGW5sIwQQBPDQ+3RILQkRgNmw4mZHVndY+ulmf8AAOgB/CrD/MvExxDTY6JBen5YAPx3+BlOxo8CmMI0QIB7Cx+TOTfAFzKOA5dUoCBvEIuDc2ry1BiArV97x+i2TkZ1J3nhO1Kd1AEZxMhkjlnl/S5gA8UBQaj8l7wm7g2m4blzq4ABRNy7KTHytASAACs4SeI4JFmo1tYU75oiPSwDupE4y23sSiYclgCD5KlHjSuKIjwWEkDAmwSYAb18hD+OUUxGIZonzBbgPcMQIV7kBhN58XgKwtro8OyvYzKvfFx8RJEA8+SrxPTBdiRFgv+d8QrAJABGAN8GFA0PXr88deyL9+ESR7gOMvVFUllXGR5i5p4XPSwA+b4ux16IsApERYQkQTluPx2FpwR0awjoA+pT1N3ERAEjTc9qNrfGyFCKryByyyaKZB/jvM7pKyMdPAT/+VMGhb9ieIr2KxrdGLVhjfjwmMMfnlqj7wUBHIv97b7JgPl18IQ58hiftL5AACVH7pmB3Qw5j/JlIAPDp9gVBofhkLwgdBtG3aenrD28CCvASuT0t4Kr5Ah3gR37fIh+4K6Ys4ssQLVyP+i6JCsb2gHgUOvAKjuE7Qajl8S44H5moXgTdNr9CAogTuJb4krn3bQIvIJw135khqgNMdCsSvBx4BUfx6vWFhcsrhmDXx3dIACED5hMuqpIg7Cw3EugEj/O17xDdC8Bu/vjXYO4Kq9gY38WQZeoEewmZYVgzKOiNlVQMCfgzwgSIl3EwVtDCqHD/VUaBVoHa+k6awoshUK4KalLgbaPjSiaSRm4WViY/APas0PZkgkBXw/EqbNUweOYJxSZ3kbXbhIM3V/sXPNt7AyHjGUHxVuhdszICoAUtuYxMFNiGnvhwnwFpqARYaOQ/NLPeJrCphe8XuYN/rmBwQSlIIHef4/z+tpart/P5us0CkvjNAAKBCmfMv2tLdICJhDMKwsOYIWhCxYyJq4jNEDLWnoqo3oK2jsYaCckDEZxH753ke5HLCc6sUPPZOgAe/toCxmtSKTj+vsxoAi9gqHYWgHALQCJAUAWJDRBt15LL9MdTQUovcxJgeQRDAYOqgINv338dTWt86qpsvv+Yb+40tHmz6I8DU/nYmKPzcJ68hBVolJA7gQRC0suhKLBEYJbh5eVo7wIcVqC9AnzJFF/35gjq7VUlUH+8YIuP7z8vt9cFQ8rWccq2DoHlU2/F3qMFk8fjl4GtphvKHHx8Xh6dx+49TwgUMa4zgAs2YL4X3w6+kEkiYMZq6zKzNXcKf6o4jwTYHjBURbE9IHplpLfvYrL8M2jnx1JVYpjbRyuDn7+MBsaOtlCQRVW7T8Wqne8eiSQyD7pjAutVqANgx5QkGlmaFtyD5CxhX4tuqOtQRsQNWLX2jZ+oBCNYfKFTmzw/AJTooivDl0qM7whKgCdhWK5A+mJhDhBTnefMIqqgCdXVkLwWEwCZNkQJxUQ5UXz4KxJgM4T7YmF2kOuXvk8WXdECwiNYuFwuAeAeICsFe+2i0Iq/IgGOk99MAa8iMdKYIE8MtCiTG9Rig2c2sQ6ATpai3PSxHP9B/BEJAFdfXnA7AXftzhc9LLqlC802PjfAArkEQMc6kYv7jh74RyQAuu23nBLroWlt2ckZbcOZBvxGB1llaJiMJmg2SCAAPEcLi7lf1wP/iARgxsnaMPIiW/6Ts5mbvHfIpBlBXekRDh5NIACU57IIHUEGUR/+iATwjmg4IMxT1kCYDwp4LcNZJOU6ANIChVQUZ44i+CMS4FISX6/VUhZYAl0RYcNhSp7AIb0rVzMG/PwZCdBdIIDfayHbeNEpMPjbBALAc4k0O6kgvRePPyIBwjo4P9DefbO/suraYKMUAkAXibAv5qoSkFwv4FvRFGmZXAOZloR1oa4TIKgDIOuCkNjSSrEEMJzzllX5wxjrTB4UGbxEfWnf/SUJICbA1bULUgZcliNfgqFirrAxgzVlQa+lUKNMIUBCtvCLBLhqC3KLsT5YBdjR1NGQOJNXEaehNGtvAgES6gVAAoh1m8ta4Ekxb4TNo9C1dZV7jv6LgZALi4EQKhMpBIDTE/TxXTsFyNLIszgyIKVWUf9ejG2dMTqhLZ2Wmks+NFMJdgBgcgxf4Hg7AX66qsjzvKgl9WKehK6p67JaUdZDdOEfEOqSBkQEho07rtOBSbUBZvKKJVCU59uPsW0T8w//aYjNii4BYokkjoQekbTTKMxXTIB7gWEKF9LKjvDQFGk16542g1uHsweR30H7pPS6tiRJvkII8dELrNX4bm19k3ns4h0yUIqvvP8ZBe4LMEoJANS167XgIMBS7qWtRBX/FEJItUDoDbpTWP4EjO2IJ6nduvJ8E843QeqBAaM+Xi8KDZ4J9hVpzgtVAV4KcYEwIHevF5Z1AbV5YaWqq/njFTzEixle43nFHgCD1EaxVVpVgJdCmmwFuuAu1xZ3ZhJeN5UFpyaUv1YIIdx7oflNOF1BIEpdaqW4D1GVOHqb+/rEr0CFj6XlylPryCniEGp0cOndFgHm0vNIoqDu4XEd34BRtJpxlqqbaiBOjyXciMBptC+rLMsqPRbehcwEgxZfOCggCnSalx4r3H2oKdarEPljLENt+6VHWNn1QOSEu2UMwnHqsqx/oAun1nDPP/wu9FVu8ZVKrCBN8ESiaKRqGwt0w09oWwbbhpus6wG7wLCFcJoblxt/DyKDMI7GvaMH4kfJ7ieBeXbffiNG6E04t1kTK/b5CchWIErTxlYLkCFUetYLuG0APyZTyvDL4HzhV3qzJEdBg0VAJODLD5zw74oWCpTQrxSrLqCv+xtFgKyYOzp0B7IFBh8TzuDoAbrfCnatcP3ULwBUcr+xt6INnUTj9UmVG/an4AUgOwKgVe4eQszXEwDult+4Bwht8UTUpiuCxJ0ryRA4kWzZ5aMkAPC4feexVSbOC6xtCT0JzhMwhySVIyeqN0AzxNcTwO3sdxJAaNghiUbaKkkI0PS4MlcEuRH6MAkAPuY7CSC7J0iHuudrlPLTSLPeCuMRyJg9Swd4ggQQWmOYgAxpTAlXqVmYpIre5n+wBPhWAkjNMdQB29MCskxDtsi1NEdRsKFKgNdAFiDK3szqYpqAIeWNFwivhDOZwR4sAb5VBxDadolBcEUoY4WtastO0SBJcsEHgvolQNfPSPz0pc2V2BJhw2dIgIsBokfrMuPKFtvE5hVvqo2Xq98GjBEerAToh/2OdFWVgyx8uHPblKJL9WfDpWlmG4YzcTyEANK4HJ9T2w5JfuSr3OqX+Ct4COefJxwjAbrSFv8+SggXWbyky1hnmVtvZbJVxEWSYMiywi1UkxeZN3l7hy7UF137pZfUO2nuKW9YQ98Mta3CvtReyYK5CgR1otbpJdYnCyoBSlxH0FaVD0qBvqKl1u1UxoM2SrYh/7pyHgr403ytTfONiov4yk94jMaxHy1CvxHu/z4ND0sAlk4m5Ce0Kg/XhXlmIxEm/lFi9COrGhGuLNJGUHTq/RBf0r+es3nBKE4I43GfQwlQ+g6ixnuTaAhJO7ZE3YZg/KLJG/i+4Fu+MD5MfEc3XvMshE4eTOJJDg0J4BdcMwNYqtZhATQLFQ/DIxWnzQRUgaBINYEyaB+D+NKX52QnQqTqLRgkT0IYeUwqJ6ziBDS8ptsLKte7kj08nOHKs5+B0Dm7qlgXCUzL2fjf4pPFCUHJzFQKBJBh9RxR7IKjCwa3VPONBJBna7Pa7JVtYPQU6+XHyLdNpkSlE01QWHueKpCNrOtnp8O+7q8kQNLV73RFNi2U1F8kKoUA+BaCrEAZk05UUmLVNjzTGIUzpbIH3I9DuDz2QYqVLwToanGW6xVePYMnwHwWL7A5YMIB5dTaMW9nXDt0gZUR6J6GTp3NgAj4zisCqcG+S6Fm4ZPZOt3Bh/sPmywBiqxu26YkudRhLgLc1BRZNbRdXWVkuaIbrLhhbhu2w/xC3PBUXblsvpuN9BstQRaJNz5mClSS3KvzxKRNfzDcmyPAUUWxIUUznQf1+PPOfPoDOp1ALwRJYpIdnz1U6NOcntdVhXyl+ZrR9Svl/4LkeH9r8Q/vBF2difLbQwRygjIEcCcZH78Kf0tXjenwP7oiAO+Nrn7SY9UGXGMk7uBLnsf3QXwUPGHr1nm3gln0R7NGcgjlgyIEgEFD5KLD+U+o8GIGhRdsB5RQKFawgoA6BINfn+IN3HHl5q+xRvTc7old348/83/6vuvmDdI6zdIfN0XufJKNHJ0XkWv7fBa0zRFFHG0QDq2Q85KwE70Q9OdpBJDmj2QmbfWMLt71LFuqWF5+VHCcEAGowQjtY8fDkHpA7AxQ0zOnUQfJBrI9dX7Z8ZCIIAfCk7IHp3v9FoKHJEwAIi1aftV1sTsayA5y3DtFaoWhXUIN3e4/TgLcuvz/GnDRpw7wlkv1D6jR7xIbHnE4TwN88mGsg/5mzkc5eDadnwcS4CV54O4hYiUpIwIZ2/v3x8G/GuYohiiydwOeAbiqc0jmuJvL8wgQKwrx6zDhYB4BAaAVdvcIRQU5SpZwPLnmBYMDuEkACfY4HUAeIPpLiGYELeFWzokLuJI3mV1FVADyk13WoxdGw9TAPcrnSQB59u5fQixYBg02ZzHgCOBZ3gCskEDLm7VRe7SHn2cSIFwa6rcR9ZMJFiRUY1YCQO2WtzSwBIBZtflAM/8u8UQCpHkFX42onwTOB5tBlpMA8JDHFxBmCQBNi3yYgpAAz9ABfm4nA70BQR6lkt2oATgCgMOcSSBAK6g9DghgHi8B7iYDvQFBpMxFCQB12xQJICDA39IBfl5SFeASJJUBU3UAw+gAKRIA6wBcwz+mA1zyCr4EkqowrzkFsPMoOgXcUAIfowN87CgoiZSBC5IzG6IEuKtUwcYa7tGQAHsW0lQ7gMkfbgeweEltoFT4A0FdIF8As5SRJXBjFdrWmCfjtc6/kOsj0kt8lsAHEeBF5cESIQqVi5uCoT94v2AUNwUjPXHvDZLvjKESby/OLvFYAnzAKxjxAu5ABGCkBrRl7/E7Ne/qceDZyZGPiBM5Qm/gg3SAT3gFhbHSOCKIiA0c+bP9uY3NBXKDHf5CnFCbdgkx59HxACeuJoS+DGFxeBwQgi0BWHYdj4WCgV49HdBzfRFBhKc9OnV4I4KeRYDuzSJAmvk9FhOIDzDHRCNGk3NA5RPkJRyJYOZCfFB8MAHulYZJhvjKPOkWzCOBtdezpAQybuD0E+hqpCMh8IUiJKpQFB187pMJIK3p+hKgcqIB0LBw9yiIL3G7vELR3aiGOQoKdt2+eDeE9QvgMKEtCSmk33gn1A9hLr+XgLfNcuAE056zoifpB9zQrw61dNdqiQUHyD+Hd0PAOP+//ZANaTNKNc0j6iALs7m+AgmJZzgC2Ix0ZV3SZHXQTIDUQ5vspO3GsWsHcuiFYr7CDYthbdhg4YBNjNi1XtXVmtCMy576dXjfUTDhuqxHNfEEowNdn6xkY/Kq5LIc4v6QS6f2eiibHhFpFjjMfskRtfzvE7YDYUb/FyASCOoiKT8AEiyMi4MnDtZImesSbENimAwkFhAeez+KNwWIJq2GBAKQANNexmjGvizzjjFqvv+3Is/Hp/GeTSApX0JKjiBiJRSVySPpIX6E+hAX0ew/Sl1Ks/N23LsqJkRSvoyEswkjZPu4TOM9voL7EmxEu7+7zyBALDvefaTmS4F1AwPZ6j3hRVEZ4BPN0e2Dn1FfB5+xBfwkZHa+CPZqRwjuBBZev/Ws33vaZyFKm0AKvDKY/HPyHOy8MvQJSuCCtvo9ITCPd/I6cIuxzto6n33KBBI/BxIWmWD6niHQ0Ps+kkJkb/CMHcCir7O7F749ozaPd3rKFKcc86J0NxW1/5xZgzi0M2lYc1IRyXfT89wxJg/ky2KLaz1p/n9sPYDs9qV/OmomS6jS4KDeurKfHkfYO2tmayK8askHLd2JS6NuKGnDom5DdoyxyXCTKSnH3legq1+sCxTXk2W1i8k/d5JB907vMlnFkL5xFcg8KDIgYEPR6zo3SW7Ku74KfVO/DO3NpPNtS5aQ/Rv9awRLm+D6fVnDtX+PW/kKhUKhUCgUCoVCoVAoFAqFQqFQKBQKhUKhUCgUCoVCoVAoFAqFQqFQKBQKhUKhUCgUCoVCoVAoFAqFQqFQKBQKhUKhUCgUCoVCoVAoFAqFQqFQKBQKhUKhuI5/yvlj+2zBtesAAAAASUVORK5CYII=;" parent="1" vertex="1">
                    <mxGeometry x="390" y="200.17" width="132.6" height="69.67" as="geometry"/>
                </mxCell>
                <mxCell id="35" value="&lt;font color=&quot;#000000&quot;&gt;Port:1099&lt;/font&gt;" style="text;html=1;resizable=0;autosize=1;align=center;verticalAlign=middle;points=[];fillColor=none;strokeColor=none;rounded=0;labelBackgroundColor=none;" parent="1" vertex="1">
                    <mxGeometry x="227" y="362" width="70" height="20" as="geometry"/>
                </mxCell>
                <mxCell id="36" value="&lt;font color=&quot;#000000&quot;&gt;Port:1099&lt;/font&gt;" style="text;html=1;resizable=0;autosize=1;align=center;verticalAlign=middle;points=[];fillColor=none;strokeColor=none;rounded=0;labelBackgroundColor=none;" parent="1" vertex="1">
                    <mxGeometry x="379" y="362" width="70" height="20" as="geometry"/>
                </mxCell>
                <mxCell id="37" value="&lt;font color=&quot;#000000&quot;&gt;Port:1099&lt;/font&gt;" style="text;html=1;resizable=0;autosize=1;align=center;verticalAlign=middle;points=[];fillColor=none;strokeColor=none;rounded=0;labelBackgroundColor=none;" parent="1" vertex="1">
                    <mxGeometry x="530" y="362" width="70" height="20" as="geometry"/>
                </mxCell>
                <mxCell id="39" value="&lt;font color=&quot;#000000&quot;&gt;実行命令&lt;/font&gt;" style="text;html=1;resizable=0;autosize=1;align=center;verticalAlign=middle;points=[];fillColor=none;strokeColor=none;rounded=0;labelBackgroundColor=none;" parent="1" vertex="1">
                    <mxGeometry x="227" y="290" width="60" height="20" as="geometry"/>
                </mxCell>
                <mxCell id="45" value="&lt;font color=&quot;#000000&quot;&gt;負荷掛け&lt;br&gt;HTTP通信(Port:8080)&lt;br&gt;&lt;/font&gt;" style="text;html=1;resizable=0;autosize=1;align=center;verticalAlign=middle;points=[];fillColor=none;strokeColor=none;rounded=0;labelBackgroundColor=none;" parent="1" vertex="1">
                    <mxGeometry x="465" y="294" width="130" height="30" as="geometry"/>
                </mxCell>
            </root>
        </mxGraphModel>
    </diagram>
</mxfile>